<svg width="581" height="143" viewBox="0 0 581 143" fill="none" xmlns="http://www.w3.org/2000/svg">
<g clip-path="url(#clip0_332_672)">
<path fill-rule="evenodd" clip-rule="evenodd" d="M192.773 56.8639L212.714 5.73105H217.128L237.069 56.8639H233.111L226.947 40.8847H202.744L196.579 56.8639H192.773ZM214.921 9.59574H214.769L203.962 37.6888H225.729L214.921 9.59574ZM241.94 39.0268C241.94 36.2026 242.359 33.6138 243.196 31.2603C244.033 28.9068 245.2 26.8754 246.697 25.166C248.194 23.4566 249.932 22.1436 251.91 21.227C253.89 20.3103 256.02 19.852 258.304 19.852C259.826 19.852 261.272 20.0378 262.642 20.4094C264.012 20.781 265.268 21.326 266.409 22.0445C267.551 22.7629 268.566 23.6548 269.454 24.72C270.342 25.7853 271.065 27.0116 271.623 28.3989H271.851C271.8 27.8539 271.763 26.9125 271.737 25.5747C271.712 24.2369 271.686 22.7877 271.661 21.227C271.635 19.6662 271.623 18.2293 271.623 16.9163V2.46094H275.276V56.8639H271.851V48.9859H271.623C271.065 50.373 270.329 51.5993 269.416 52.6645C268.502 53.7301 267.449 54.634 266.257 55.3776C265.065 56.1207 263.771 56.6779 262.376 57.0495C260.98 57.421 259.521 57.6071 257.999 57.6071C255.716 57.6071 253.598 57.1859 251.644 56.3435C249.691 55.5011 247.991 54.2624 246.545 52.6277C245.099 50.9926 243.97 49.0231 243.158 46.7192C242.346 44.4149 241.94 41.851 241.94 39.0268ZM245.746 39.0268C245.746 41.4051 246.075 43.5601 246.735 45.4929C247.395 47.4252 248.308 49.0603 249.475 50.3978C250.642 51.7358 252.012 52.7513 253.585 53.4448C255.158 54.1388 256.832 54.4856 258.608 54.4856C260.384 54.4856 262.046 54.1388 263.593 53.4448C265.141 52.7513 266.511 51.7606 267.703 50.4722C268.896 49.1839 269.834 47.5983 270.519 45.7156C271.204 43.833 271.572 41.7518 271.623 39.4728V37.9864C271.572 35.7071 271.204 33.6261 270.519 31.7433C269.834 29.8606 268.908 28.275 267.741 26.9868C266.574 25.6986 265.217 24.7077 263.669 24.014C262.122 23.3203 260.46 22.9735 258.684 22.9735C256.858 22.9735 255.158 23.3451 253.585 24.0883C252.012 24.8315 250.642 25.9216 249.475 27.3584C248.308 28.7953 247.395 30.5047 246.735 32.4866C246.075 34.4685 245.746 36.6485 245.746 39.0268ZM296.967 56.8639L282.659 20.5952H286.54L298.946 52.9993H299.098L311.504 20.5952H315.158L300.925 56.8639H296.967ZM320.028 47.7968C320.028 46.3104 320.257 44.9973 320.714 43.8578C321.17 42.7182 321.868 41.7146 322.807 40.8475C323.745 39.9808 324.925 39.2496 326.346 38.6552C327.766 38.0604 329.441 37.6149 331.369 37.3173L340.197 35.9053C341.161 35.7567 341.948 35.608 342.557 35.4594C343.165 35.3108 343.673 35.1126 344.079 34.8648C344.485 34.6171 344.789 34.3074 344.992 33.9358C345.195 33.5642 345.297 33.1307 345.297 32.6352C345.246 31.0001 344.992 29.5757 344.536 28.3618C344.079 27.1479 343.432 26.1322 342.595 25.3146C341.758 24.4971 340.743 23.8777 339.55 23.4566C338.358 23.0354 337.001 22.8248 335.478 22.8248C333.956 22.8248 332.574 23.023 331.331 23.4194C330.088 23.8158 329.009 24.398 328.096 25.166C327.183 25.934 326.447 26.8877 325.889 28.0273C325.331 29.1669 325.001 30.4551 324.899 31.892H321.398C321.5 30.0588 321.906 28.3989 322.616 26.9125C323.327 25.4261 324.303 24.1503 325.546 23.085C326.789 22.0197 328.248 21.2146 329.922 20.6695C331.597 20.1245 333.449 19.852 335.478 19.852C337.61 19.852 339.513 20.1369 341.187 20.7067C342.861 21.2765 344.269 22.1188 345.411 23.2336C346.553 24.3484 347.428 25.7234 348.037 27.3584C348.646 28.9935 348.95 30.8515 348.95 32.9325V56.8639H345.525V49.9518H345.297C344.789 51.141 344.104 52.2065 343.242 53.1477C342.379 54.0892 341.377 54.8944 340.235 55.5632C339.094 56.2319 337.825 56.7399 336.43 57.0867C335.035 57.4334 333.525 57.6071 331.902 57.6071C330.024 57.6071 328.35 57.3714 326.878 56.9011C325.407 56.4303 324.164 55.7616 323.149 54.8944C322.134 54.0272 321.36 52.9993 320.827 51.8102C320.295 50.621 320.028 49.2831 320.028 47.7968ZM345.297 41.4051V36.5742C345.094 36.8219 344.84 37.0573 344.536 37.2801C344.231 37.5033 343.876 37.7012 343.47 37.8748C343.064 38.0485 342.633 38.1844 342.176 38.2836C341.719 38.3828 341.212 38.4816 340.654 38.5808L332.054 39.9188C330.633 40.1167 329.39 40.4387 328.324 40.8847C327.259 41.3307 326.383 41.8635 325.699 42.4826C325.013 43.1022 324.506 43.833 324.176 44.6753C323.846 45.5177 323.682 46.4588 323.682 47.4996C323.682 48.5399 323.872 49.5058 324.253 50.3978C324.633 51.2898 325.191 52.0453 325.927 52.6645C326.663 53.2841 327.576 53.7673 328.667 54.114C329.758 54.4608 331.014 54.634 332.434 54.634C334.159 54.634 335.783 54.374 337.305 53.8536C338.827 53.3337 340.197 52.5409 341.415 51.4753C342.633 50.4102 343.584 49.0355 344.269 47.3508C344.954 45.666 345.297 43.6841 345.297 41.4051ZM361.28 56.8639V20.5952H364.705V27.6557H364.933C365.491 26.3675 366.202 25.2279 367.064 24.237C367.927 23.246 368.929 22.4285 370.07 21.7844C371.212 21.1402 372.43 20.6571 373.724 20.3351C375.018 20.0131 376.349 19.852 377.719 19.852C379.648 19.852 381.398 20.1245 382.971 20.6695C384.544 21.2146 385.939 22.0692 387.157 23.2336C388.375 24.398 389.313 25.9092 389.973 27.7672C390.632 29.6252 390.962 31.8424 390.962 34.4189V56.8639H387.309V34.8648C387.309 32.7343 387.068 30.9134 386.586 29.4022C386.104 27.8911 385.406 26.6648 384.493 25.7234C383.58 24.782 382.501 24.0883 381.258 23.6424C380.015 23.1965 378.632 22.9735 377.11 22.9735C375.436 22.9735 373.863 23.2832 372.392 23.9025C370.92 24.5218 369.626 25.4509 368.51 26.6895C367.394 27.9282 366.519 29.4889 365.885 31.3717C365.25 33.2546 364.933 35.385 364.933 37.7632V56.8639H361.28ZM400.4 38.7296C400.4 35.9549 400.819 33.4032 401.656 31.0745C402.493 28.7457 403.685 26.7391 405.233 25.0545C406.78 23.3698 408.569 22.0816 410.598 21.1898C412.628 20.2979 414.81 19.852 417.144 19.852C419.174 19.852 421.038 20.1493 422.738 20.7439C424.438 21.3384 425.935 22.1931 427.229 23.3079C428.522 24.4228 429.6 25.7481 430.463 27.2841C431.326 28.8201 431.909 30.5046 432.214 32.3379H428.56C428.256 30.901 427.774 29.6128 427.114 28.4732C426.454 27.3337 425.643 26.3551 424.679 25.5375C423.715 24.72 422.598 24.0883 421.33 23.6424C420.061 23.1965 418.666 22.9735 417.144 22.9735C415.368 22.9735 413.694 23.3575 412.121 24.1254C410.548 24.8935 409.165 25.9711 407.973 27.3584C406.78 28.7457 405.854 30.4179 405.195 32.3751C404.535 34.3322 404.205 36.4503 404.205 38.7296C404.205 41.0583 404.523 43.1886 405.157 45.1213C405.791 47.0536 406.692 48.7255 407.859 50.1378C409.026 51.5497 410.396 52.6273 411.969 53.3709C413.541 54.114 415.266 54.4856 417.144 54.4856C418.666 54.4856 420.061 54.2624 421.33 53.8164C422.598 53.3709 423.715 52.7389 424.679 51.9213C425.643 51.1038 426.454 50.1254 427.114 48.9859C427.774 47.8464 428.256 46.558 428.56 45.1213H432.214C431.909 46.9544 431.326 48.6391 430.463 50.175C429.6 51.711 428.522 53.0361 427.229 54.1512C425.935 55.266 424.438 56.1207 422.738 56.7151C421.038 57.3099 419.174 57.6071 417.144 57.6071C414.658 57.6071 412.374 57.1611 410.294 56.2691C408.214 55.3776 406.438 54.1016 404.966 52.4417C403.495 50.7818 402.366 48.7875 401.58 46.4588C400.793 44.1301 400.4 41.5539 400.4 38.7296ZM438.911 38.7296C438.911 36.0044 439.331 33.4775 440.168 31.1488C441.005 28.8201 442.184 26.8134 443.707 25.1288C445.226 23.4442 446.993 22.1436 448.995 21.227C451.001 20.3103 453.167 19.852 455.501 19.852C457.738 19.852 459.801 20.236 461.706 21.004C463.61 21.772 465.258 22.9116 466.653 24.4228C468.048 25.934 469.129 27.7548 469.886 29.8853C470.648 32.0159 471.028 34.4189 471.028 37.0945V38.6552H442.715V38.7296C442.715 41.0583 443.021 43.1886 443.632 45.1213C444.239 47.0536 445.102 48.7255 446.218 50.1378C447.334 51.5497 448.703 52.6273 450.328 53.3709C451.953 54.114 453.778 54.4856 455.807 54.4856C457.33 54.4856 458.738 54.2748 460.032 53.8536C461.325 53.4324 462.454 52.8381 463.42 52.0701C464.381 51.3022 465.182 50.3854 465.816 49.3203C466.449 48.2551 466.87 47.1032 467.074 45.8645H470.648C470.444 47.5487 469.926 49.1095 469.089 50.5466C468.252 51.9833 467.175 53.2345 465.856 54.2996C464.536 55.3652 463.012 56.1823 461.29 56.7523C459.562 57.3223 457.738 57.6071 455.807 57.6071C453.167 57.6071 450.798 57.1611 448.689 56.2691C446.586 55.3776 444.81 54.1016 443.362 52.4417C441.918 50.7818 440.815 48.7875 440.053 46.4588C439.291 44.1301 438.911 41.5539 438.911 38.7296ZM455.501 22.9735C453.88 22.9735 452.357 23.2708 450.935 23.8653C449.518 24.4599 448.247 25.327 447.131 26.4666C446.014 27.6062 445.089 28.9811 444.354 30.5914C443.618 32.2017 443.122 33.973 442.87 35.9053H467.299C467.198 33.8243 466.843 31.9787 466.236 30.3684C465.625 28.7581 464.802 27.3956 463.761 26.2808C462.72 25.166 461.502 24.336 460.107 23.791C458.712 23.246 457.18 22.9735 455.501 22.9735ZM478.03 39.0268C478.03 36.2026 478.451 33.6138 479.288 31.2603C480.125 28.9068 481.29 26.8754 482.787 25.166C484.284 23.4566 486.025 22.1436 488 21.227C489.979 20.3103 492.11 19.852 494.395 19.852C495.919 19.852 497.362 20.0378 498.735 20.4094C500.104 20.781 501.357 21.326 502.5 22.0445C503.642 22.7629 504.657 23.6548 505.547 24.72C506.433 25.7853 507.154 27.0116 507.712 28.3989H507.943C507.89 27.8539 507.854 26.9125 507.828 25.5747C507.801 24.2369 507.779 22.7877 507.752 21.227C507.726 19.6662 507.712 18.2293 507.712 16.9163V2.46094H511.366V56.8639H507.943V48.9859H507.712C507.154 50.373 506.419 51.5993 505.507 52.6645C504.595 53.7301 503.541 54.634 502.349 55.3776C501.158 56.1207 499.86 56.6779 498.465 57.0495C497.07 57.421 495.613 57.6071 494.089 57.6071C491.809 57.6071 489.687 57.1859 487.734 56.3435C485.781 55.5011 484.08 54.2624 482.636 52.6277C481.188 50.9926 480.059 49.0231 479.248 46.7192C478.438 44.4149 478.03 41.851 478.03 39.0268ZM481.835 39.0268C481.835 41.4051 482.167 43.5601 482.827 45.4929C483.487 47.4252 484.399 49.0603 485.568 50.3978C486.733 51.7358 488.102 52.7513 489.678 53.4448C491.251 54.1388 492.925 54.4856 494.701 54.4856C496.477 54.4856 498.137 54.1388 499.683 53.4448C501.233 52.7513 502.602 51.7606 503.793 50.4722C504.989 49.1839 505.928 47.5983 506.61 45.7156C507.296 43.833 507.664 41.7518 507.712 39.4728V37.9864C507.664 35.7071 507.296 33.6261 506.61 31.7433C505.928 29.8606 504.998 28.275 503.833 26.9868C502.664 25.6986 501.308 24.7077 499.763 24.014C498.213 23.3203 496.552 22.9735 494.776 22.9735C492.947 22.9735 491.251 23.3451 489.678 24.0883C488.102 24.8315 486.733 25.9216 485.568 27.3584C484.399 28.7953 483.487 30.5047 482.827 32.4866C482.167 34.4685 481.835 36.6485 481.835 39.0268Z" fill="white"/>
<path fill-rule="evenodd" clip-rule="evenodd" d="M192.879 129.849V78.7165H217.614C220.506 78.7165 223.031 79.0137 225.187 79.6085C227.344 80.2029 229.132 81.0824 230.553 82.2468C231.974 83.4111 233.027 84.811 233.711 86.4457C234.397 88.0809 234.739 89.9635 234.739 92.0943C234.739 93.333 234.574 94.4973 234.244 95.5873C233.915 96.6772 233.407 97.6932 232.722 98.6343C232.037 99.5759 231.175 100.381 230.134 101.05C229.094 101.719 227.889 102.251 226.519 102.648V102.945C228.092 103.243 229.526 103.738 230.819 104.432C232.113 105.125 233.204 105.98 234.092 106.996C234.98 108.011 235.665 109.176 236.147 110.489C236.629 111.802 236.87 113.201 236.87 114.688C236.87 116.868 236.49 118.887 235.728 120.745C234.967 122.603 233.839 124.213 232.342 125.576C230.845 126.939 228.98 127.991 226.748 128.734C224.515 129.478 221.978 129.849 219.137 129.849H192.879ZM217.767 107.182H203.154V121.971H217.691C219.162 121.971 220.456 121.786 221.572 121.414C222.688 121.042 223.615 120.522 224.35 119.853C225.086 119.184 225.631 118.379 225.987 117.438C226.342 116.496 226.519 115.456 226.519 114.316C226.519 113.226 226.342 112.248 225.987 111.38C225.631 110.513 225.086 109.77 224.35 109.151C223.615 108.531 222.688 108.049 221.572 107.701C220.456 107.355 219.188 107.182 217.767 107.182ZM216.321 86.5945H203.154V99.7495H216.245C217.614 99.7495 218.819 99.5759 219.86 99.2291C220.9 98.8823 221.775 98.3991 222.486 97.78C223.196 97.1604 223.716 96.4296 224.045 95.5873C224.375 94.7449 224.54 93.8038 224.54 92.763C224.54 91.8219 224.388 90.9795 224.084 90.2364C223.779 89.4932 223.297 88.8488 222.638 88.3041C221.978 87.7589 221.128 87.3377 220.088 87.0405C219.048 86.7433 217.792 86.5945 216.321 86.5945ZM245.623 129.849V75.4463H255.441V129.849H245.623ZM263.66 111.715C263.66 108.792 264.143 106.153 265.107 103.8C266.071 101.446 267.441 99.4395 269.216 97.78C270.992 96.1201 273.085 94.8565 275.496 93.9894C277.906 93.1222 280.532 92.6891 283.373 92.6891C286.316 92.6891 288.993 93.1098 291.403 93.9522C293.812 94.7945 295.88 96.0457 297.605 97.7056C299.331 99.3655 300.662 101.372 301.601 103.726C302.54 106.079 303.009 108.742 303.009 111.715C303.009 114.638 302.527 117.277 301.563 119.63C300.599 121.984 299.229 123.99 297.453 125.65C295.677 127.31 293.597 128.573 291.212 129.44C288.827 130.308 286.214 130.741 283.373 130.741C280.43 130.741 277.741 130.32 275.305 129.478C272.87 128.635 270.79 127.385 269.065 125.725C267.339 124.065 266.007 122.058 265.069 119.704C264.13 117.351 263.66 114.688 263.66 111.715ZM273.783 111.715C273.783 113.499 274.012 115.122 274.468 116.583C274.925 118.045 275.572 119.283 276.409 120.299C277.246 121.315 278.261 122.095 279.453 122.64C280.646 123.185 281.952 123.457 283.373 123.457C284.794 123.457 286.1 123.185 287.293 122.64C288.485 122.095 289.487 121.315 290.299 120.299C291.111 119.283 291.745 118.045 292.202 116.583C292.658 115.122 292.887 113.499 292.887 111.715C292.887 109.882 292.671 108.247 292.24 106.81C291.808 105.373 291.174 104.146 290.337 103.131C289.5 102.115 288.485 101.347 287.293 100.827C286.1 100.307 284.794 100.047 283.373 100.047C281.952 100.047 280.646 100.319 279.453 100.864C278.261 101.409 277.246 102.189 276.409 103.205C275.572 104.221 274.925 105.447 274.468 106.884C274.012 108.321 273.783 109.931 273.783 111.715ZM308.641 111.715C308.641 108.792 309.11 106.153 310.049 103.8C310.988 101.446 312.307 99.4395 314.007 97.78C315.707 96.1201 317.749 94.8565 320.134 93.9894C322.519 93.1222 325.132 92.6891 327.973 92.6891C330.662 92.6891 333.06 93.0358 335.165 93.7294C337.271 94.4229 339.072 95.3769 340.569 96.5909C342.066 97.8048 343.246 99.2415 344.108 100.901C344.971 102.561 345.504 104.332 345.706 106.215H336.041C335.889 105.373 335.622 104.58 335.241 103.837C334.861 103.094 334.341 102.425 333.681 101.83C333.022 101.236 332.21 100.777 331.246 100.455C330.282 100.133 329.191 99.9723 327.973 99.9723C326.603 99.9723 325.36 100.257 324.244 100.827C323.127 101.397 322.151 102.202 321.314 103.243C320.476 104.283 319.842 105.534 319.411 106.996C318.979 108.457 318.764 110.031 318.764 111.715C318.764 113.4 318.979 114.973 319.411 116.434C319.842 117.896 320.476 119.147 321.314 120.188C322.151 121.228 323.127 122.033 324.244 122.603C325.36 123.173 326.603 123.457 327.973 123.457C329.191 123.457 330.282 123.297 331.246 122.975C332.21 122.652 333.022 122.194 333.681 121.6C334.341 121.005 334.861 120.336 335.241 119.593C335.622 118.85 335.889 118.057 336.041 117.215H345.706C345.504 119.147 344.984 120.931 344.146 122.566C343.309 124.201 342.142 125.625 340.645 126.839C339.149 128.053 337.335 129.007 335.203 129.701C333.072 130.394 330.662 130.741 327.973 130.741C325.03 130.741 322.366 130.32 319.981 129.478C317.597 128.635 315.554 127.396 313.855 125.762C312.155 124.127 310.861 122.12 309.973 119.742C309.085 117.363 308.641 114.688 308.641 111.715ZM353.317 129.849V75.4463H363.136V108.668L377.064 93.5806H388.176L374.324 108.073L389.546 129.849H378.281L367.854 114.836L363.136 119.742V129.849H353.317ZM392.59 111.715C392.59 108.792 393.059 106.153 393.998 103.8C394.937 101.446 396.256 99.4395 397.955 97.78C399.655 96.1201 401.698 94.8565 404.082 93.9894C406.467 93.1222 409.08 92.6891 411.922 92.6891C414.611 92.6891 417.008 93.0358 419.114 93.7294C421.22 94.4229 423.021 95.3769 424.518 96.5909C426.015 97.8048 427.194 99.2415 428.057 100.901C428.92 102.561 429.452 104.332 429.655 106.215H419.989C419.837 105.373 419.571 104.58 419.19 103.837C418.81 103.094 418.29 102.425 417.63 101.83C416.97 101.236 416.158 100.777 415.194 100.455C414.231 100.133 413.139 99.9723 411.922 99.9723C410.552 99.9723 409.309 100.257 408.192 100.827C407.076 101.397 406.099 102.202 405.262 103.243C404.425 104.283 403.791 105.534 403.36 106.996C402.928 108.457 402.713 110.031 402.713 111.715C402.713 113.4 402.928 114.973 403.36 116.434C403.791 117.896 404.425 119.147 405.262 120.188C406.099 121.228 407.076 122.033 408.192 122.603C409.309 123.173 410.552 123.457 411.922 123.457C413.139 123.457 414.231 123.297 415.194 122.975C416.158 122.652 416.97 122.194 417.63 121.6C418.29 121.005 418.81 120.336 419.19 119.593C419.571 118.85 419.837 118.057 419.989 117.215H429.655C429.452 119.147 428.932 120.931 428.095 122.566C427.258 124.201 426.091 125.625 424.594 126.839C423.097 128.053 421.283 129.007 419.152 129.701C417.021 130.394 414.611 130.741 411.922 130.741C408.979 130.741 406.315 130.32 403.93 129.478C401.545 128.635 399.503 127.396 397.804 125.762C396.104 124.127 394.81 122.12 393.922 119.742C393.034 117.363 392.59 114.688 392.59 111.715ZM437.264 129.849V75.4463H447.083V89.1956C447.083 89.9884 447.07 90.9175 447.048 91.9827C447.021 93.0482 446.968 94.163 446.893 95.3273C446.817 96.4916 446.729 97.6436 446.627 98.7831H446.933C447.437 97.7924 448.089 96.9128 448.872 96.1449C449.661 95.3769 450.533 94.7325 451.499 94.2126C452.464 93.6922 453.514 93.3082 454.657 93.0606C455.799 92.8126 457.03 92.6891 458.35 92.6891C460.325 92.6891 462.181 92.9614 463.904 93.5062C465.631 94.0514 467.137 94.9185 468.435 96.1077C469.728 97.2968 470.755 98.8699 471.517 100.827C472.274 102.784 472.655 105.125 472.655 107.85V129.849H462.841V109.039C462.841 107.404 462.673 106.017 462.345 104.878C462.013 103.738 461.534 102.821 460.897 102.128C460.263 101.434 459.502 100.926 458.616 100.604C457.726 100.282 456.725 100.121 455.609 100.121C454.391 100.121 453.261 100.356 452.221 100.827C451.18 101.298 450.281 101.991 449.519 102.908C448.757 103.824 448.164 104.939 447.73 106.252C447.3 107.565 447.083 109.039 447.083 110.675V129.849H437.264ZM480.725 120.485C480.725 118.949 480.964 117.574 481.446 116.36C481.929 115.146 482.691 114.081 483.732 113.164C484.773 112.248 486.092 111.48 487.687 110.86C489.286 110.241 491.177 109.758 493.36 109.411L500.513 108.371C501.527 108.222 502.342 108.061 502.948 107.887C503.56 107.714 504.025 107.528 504.357 107.33C504.685 107.132 504.915 106.884 505.043 106.587C505.167 106.29 505.234 105.918 505.234 105.472C505.234 104.58 505.092 103.762 504.813 103.019C504.534 102.276 504.127 101.632 503.595 101.087C503.064 100.542 502.377 100.121 501.54 99.8235C500.703 99.5263 499.729 99.3779 498.608 99.3779C497.492 99.3779 496.491 99.5139 495.605 99.7867C494.715 100.059 493.967 100.455 493.36 100.976C492.749 101.496 492.279 102.128 491.952 102.871C491.62 103.614 491.407 104.432 491.305 105.323H482.173C482.323 103.341 482.819 101.558 483.656 99.9723C484.494 98.3867 485.645 97.0488 487.12 95.9589C488.59 94.8689 490.3 94.0514 492.257 93.5062C494.21 92.9614 496.327 92.6891 498.608 92.6891C501.35 92.6891 503.746 92.9738 505.801 93.5434C507.856 94.1134 509.57 94.9557 510.938 96.0705C512.311 97.1852 513.339 98.5604 514.021 100.195C514.707 101.83 515.048 103.738 515.048 105.918V129.849H505.69V125.539H505.234C504.676 126.381 504.003 127.124 503.214 127.768C502.43 128.412 501.54 128.957 500.552 129.403C499.56 129.849 498.458 130.184 497.24 130.407C496.022 130.63 494.729 130.741 493.36 130.741C491.327 130.741 489.516 130.494 487.917 129.998C486.318 129.502 484.985 128.809 483.922 127.917C482.855 127.025 482.058 125.947 481.522 124.684C480.99 123.421 480.725 122.021 480.725 120.485ZM496.177 124.052C497.342 124.052 498.471 123.879 499.56 123.532C500.654 123.185 501.629 122.64 502.492 121.897C503.356 121.154 504.025 120.225 504.507 119.11C504.99 117.995 505.234 116.695 505.234 115.208V112.012C505.079 112.26 504.875 112.47 504.623 112.644C504.37 112.817 504.091 112.966 503.786 113.09C503.48 113.214 503.152 113.325 502.798 113.424C502.439 113.524 502.036 113.622 501.58 113.722L495.871 114.614C494.906 114.762 494.069 114.985 493.36 115.282C492.647 115.579 492.076 115.939 491.646 116.36C491.216 116.781 490.898 117.252 490.694 117.772C490.49 118.293 490.393 118.875 490.393 119.518C490.393 120.212 490.517 120.844 490.769 121.414C491.026 121.984 491.394 122.467 491.876 122.863C492.355 123.26 492.953 123.557 493.661 123.755C494.374 123.953 495.211 124.052 496.177 124.052ZM524.942 84.3651V75.4463H535.372V84.3651H524.942ZM525.248 129.849V93.5806H535.066V129.849H525.248ZM545.722 129.849V93.5806H555.085V98.7831H555.386C555.895 97.7924 556.542 96.9128 557.33 96.1449C558.114 95.3769 558.991 94.7325 559.956 94.2126C560.917 93.6922 561.971 93.3082 563.114 93.0606C564.257 92.8126 565.484 92.6891 566.803 92.6891C568.783 92.6891 570.634 92.9614 572.362 93.5062C574.084 94.0514 575.595 94.9185 576.888 96.1077C578.181 97.2968 579.208 98.8699 579.97 100.827C580.732 102.784 581.113 105.125 581.113 107.85V129.849H571.294V109.039C571.294 107.404 571.13 106.017 570.798 104.878C570.47 103.738 569.988 102.821 569.354 102.128C568.721 101.434 567.959 100.926 567.069 100.604C566.183 100.282 565.182 100.121 564.066 100.121C562.848 100.121 561.719 100.356 560.678 100.827C559.638 101.298 558.738 102.004 557.977 102.945C557.215 103.886 556.617 105.014 556.187 106.327C555.758 107.64 555.541 109.114 555.541 110.749V129.849H545.722Z" fill="white"/>
<path fill-rule="evenodd" clip-rule="evenodd" d="M192.879 129.849V78.7165H217.614C220.506 78.7165 223.031 79.0137 225.187 79.6085C227.344 80.2029 229.132 81.0824 230.553 82.2468C231.974 83.4111 233.027 84.811 233.711 86.4457C234.397 88.0809 234.739 89.9635 234.739 92.0943C234.739 93.333 234.574 94.4973 234.244 95.5873C233.915 96.6772 233.407 97.6932 232.722 98.6343C232.037 99.5759 231.175 100.381 230.134 101.05C229.094 101.719 227.889 102.251 226.519 102.648V102.945C228.092 103.243 229.526 103.738 230.819 104.432C232.113 105.125 233.204 105.98 234.092 106.996C234.98 108.011 235.665 109.176 236.147 110.489C236.629 111.802 236.87 113.201 236.87 114.688C236.87 116.868 236.49 118.887 235.728 120.745C234.967 122.603 233.839 124.213 232.342 125.576C230.845 126.939 228.98 127.991 226.748 128.734C224.515 129.478 221.978 129.849 219.137 129.849H192.879ZM217.767 107.182H203.154V121.971H217.691C219.162 121.971 220.456 121.786 221.572 121.414C222.688 121.042 223.615 120.522 224.35 119.853C225.086 119.184 225.631 118.379 225.987 117.438C226.342 116.496 226.519 115.456 226.519 114.316C226.519 113.226 226.342 112.248 225.987 111.38C225.631 110.513 225.086 109.77 224.35 109.151C223.615 108.531 222.688 108.049 221.572 107.701C220.456 107.355 219.188 107.182 217.767 107.182ZM216.321 86.5945H203.154V99.7495H216.245C217.614 99.7495 218.819 99.5759 219.86 99.2291C220.9 98.8823 221.775 98.3991 222.486 97.78C223.196 97.1604 223.716 96.4296 224.045 95.5873C224.375 94.7449 224.54 93.8038 224.54 92.763C224.54 91.8219 224.388 90.9795 224.084 90.2364C223.779 89.4932 223.297 88.8488 222.638 88.3041C221.978 87.7589 221.128 87.3377 220.088 87.0405C219.048 86.7433 217.792 86.5945 216.321 86.5945ZM245.623 129.849V75.4463H255.441V129.849H245.623ZM263.66 111.715C263.66 108.792 264.143 106.153 265.107 103.8C266.071 101.446 267.441 99.4395 269.216 97.78C270.992 96.1201 273.085 94.8565 275.496 93.9894C277.906 93.1222 280.532 92.6891 283.373 92.6891C286.316 92.6891 288.993 93.1098 291.403 93.9522C293.812 94.7945 295.88 96.0457 297.605 97.7056C299.331 99.3655 300.662 101.372 301.601 103.726C302.54 106.079 303.009 108.742 303.009 111.715C303.009 114.638 302.527 117.277 301.563 119.63C300.599 121.984 299.229 123.99 297.453 125.65C295.677 127.31 293.597 128.573 291.212 129.44C288.827 130.308 286.214 130.741 283.373 130.741C280.43 130.741 277.741 130.32 275.305 129.478C272.87 128.635 270.79 127.385 269.065 125.725C267.339 124.065 266.007 122.058 265.069 119.704C264.13 117.351 263.66 114.688 263.66 111.715ZM273.783 111.715C273.783 113.499 274.012 115.122 274.468 116.583C274.925 118.045 275.572 119.283 276.409 120.299C277.246 121.315 278.261 122.095 279.453 122.64C280.646 123.185 281.952 123.457 283.373 123.457C284.794 123.457 286.1 123.185 287.293 122.64C288.485 122.095 289.487 121.315 290.299 120.299C291.111 119.283 291.745 118.045 292.202 116.583C292.658 115.122 292.887 113.499 292.887 111.715C292.887 109.882 292.671 108.247 292.24 106.81C291.808 105.373 291.174 104.146 290.337 103.131C289.5 102.115 288.485 101.347 287.293 100.827C286.1 100.307 284.794 100.047 283.373 100.047C281.952 100.047 280.646 100.319 279.453 100.864C278.261 101.409 277.246 102.189 276.409 103.205C275.572 104.221 274.925 105.447 274.468 106.884C274.012 108.321 273.783 109.931 273.783 111.715ZM308.641 111.715C308.641 108.792 309.11 106.153 310.049 103.8C310.988 101.446 312.307 99.4395 314.007 97.78C315.707 96.1201 317.749 94.8565 320.134 93.9894C322.519 93.1222 325.132 92.6891 327.973 92.6891C330.662 92.6891 333.06 93.0358 335.165 93.7294C337.271 94.4229 339.072 95.3769 340.569 96.5909C342.066 97.8048 343.246 99.2415 344.108 100.901C344.971 102.561 345.504 104.332 345.706 106.215H336.041C335.889 105.373 335.622 104.58 335.241 103.837C334.861 103.094 334.341 102.425 333.681 101.83C333.022 101.236 332.21 100.777 331.246 100.455C330.282 100.133 329.191 99.9723 327.973 99.9723C326.603 99.9723 325.36 100.257 324.244 100.827C323.127 101.397 322.151 102.202 321.314 103.243C320.476 104.283 319.842 105.534 319.411 106.996C318.979 108.457 318.764 110.031 318.764 111.715C318.764 113.4 318.979 114.973 319.411 116.434C319.842 117.896 320.476 119.147 321.314 120.188C322.151 121.228 323.127 122.033 324.244 122.603C325.36 123.173 326.603 123.457 327.973 123.457C329.191 123.457 330.282 123.297 331.246 122.975C332.21 122.652 333.022 122.194 333.681 121.6C334.341 121.005 334.861 120.336 335.241 119.593C335.622 118.85 335.889 118.057 336.041 117.215H345.706C345.504 119.147 344.984 120.931 344.146 122.566C343.309 124.201 342.142 125.625 340.645 126.839C339.149 128.053 337.335 129.007 335.203 129.701C333.072 130.394 330.662 130.741 327.973 130.741C325.03 130.741 322.366 130.32 319.981 129.478C317.597 128.635 315.554 127.396 313.855 125.762C312.155 124.127 310.861 122.12 309.973 119.742C309.085 117.363 308.641 114.688 308.641 111.715ZM353.317 129.849V75.4463H363.136V108.668L377.064 93.5806H388.176L374.324 108.073L389.546 129.849H378.281L367.854 114.836L363.136 119.742V129.849H353.317ZM392.59 111.715C392.59 108.792 393.059 106.153 393.998 103.8C394.937 101.446 396.256 99.4395 397.955 97.78C399.655 96.1201 401.698 94.8565 404.082 93.9894C406.467 93.1222 409.08 92.6891 411.922 92.6891C414.611 92.6891 417.008 93.0358 419.114 93.7294C421.22 94.4229 423.021 95.3769 424.518 96.5909C426.015 97.8048 427.194 99.2415 428.057 100.901C428.92 102.561 429.452 104.332 429.655 106.215H419.989C419.837 105.373 419.571 104.58 419.19 103.837C418.81 103.094 418.29 102.425 417.63 101.83C416.97 101.236 416.158 100.777 415.194 100.455C414.231 100.133 413.139 99.9723 411.922 99.9723C410.552 99.9723 409.309 100.257 408.192 100.827C407.076 101.397 406.099 102.202 405.262 103.243C404.425 104.283 403.791 105.534 403.36 106.996C402.928 108.457 402.713 110.031 402.713 111.715C402.713 113.4 402.928 114.973 403.36 116.434C403.791 117.896 404.425 119.147 405.262 120.188C406.099 121.228 407.076 122.033 408.192 122.603C409.309 123.173 410.552 123.457 411.922 123.457C413.139 123.457 414.231 123.297 415.194 122.975C416.158 122.652 416.97 122.194 417.63 121.6C418.29 121.005 418.81 120.336 419.19 119.593C419.571 118.85 419.837 118.057 419.989 117.215H429.655C429.452 119.147 428.932 120.931 428.095 122.566C427.258 124.201 426.091 125.625 424.594 126.839C423.097 128.053 421.283 129.007 419.152 129.701C417.021 130.394 414.611 130.741 411.922 130.741C408.979 130.741 406.315 130.32 403.93 129.478C401.545 128.635 399.503 127.396 397.804 125.762C396.104 124.127 394.81 122.12 393.922 119.742C393.034 117.363 392.59 114.688 392.59 111.715ZM437.264 129.849V75.4463H447.083V89.1956C447.083 89.9884 447.07 90.9175 447.048 91.9827C447.021 93.0482 446.968 94.163 446.893 95.3273C446.817 96.4916 446.729 97.6436 446.627 98.7831H446.933C447.437 97.7924 448.089 96.9128 448.872 96.1449C449.661 95.3769 450.533 94.7325 451.499 94.2126C452.464 93.6922 453.514 93.3082 454.657 93.0606C455.799 92.8126 457.03 92.6891 458.35 92.6891C460.325 92.6891 462.181 92.9614 463.904 93.5062C465.631 94.0514 467.137 94.9185 468.435 96.1077C469.728 97.2968 470.755 98.8699 471.517 100.827C472.274 102.784 472.655 105.125 472.655 107.85V129.849H462.841V109.039C462.841 107.404 462.673 106.017 462.345 104.878C462.013 103.738 461.534 102.821 460.897 102.128C460.263 101.434 459.502 100.926 458.616 100.604C457.726 100.282 456.725 100.121 455.609 100.121C454.391 100.121 453.261 100.356 452.221 100.827C451.18 101.298 450.281 101.991 449.519 102.908C448.757 103.824 448.164 104.939 447.73 106.252C447.3 107.565 447.083 109.039 447.083 110.675V129.849H437.264ZM480.725 120.485C480.725 118.949 480.964 117.574 481.446 116.36C481.929 115.146 482.691 114.081 483.732 113.164C484.773 112.248 486.092 111.48 487.687 110.86C489.286 110.241 491.177 109.758 493.36 109.411L500.513 108.371C501.527 108.222 502.342 108.061 502.948 107.887C503.56 107.714 504.025 107.528 504.357 107.33C504.685 107.132 504.915 106.884 505.043 106.587C505.167 106.29 505.234 105.918 505.234 105.472C505.234 104.58 505.092 103.762 504.813 103.019C504.534 102.276 504.127 101.632 503.595 101.087C503.064 100.542 502.377 100.121 501.54 99.8235C500.703 99.5263 499.729 99.3779 498.608 99.3779C497.492 99.3779 496.491 99.5139 495.605 99.7867C494.715 100.059 493.967 100.455 493.36 100.976C492.749 101.496 492.279 102.128 491.952 102.871C491.62 103.614 491.407 104.432 491.305 105.323H482.173C482.323 103.341 482.819 101.558 483.656 99.9723C484.494 98.3867 485.645 97.0488 487.12 95.9589C488.59 94.8689 490.3 94.0514 492.257 93.5062C494.21 92.9614 496.327 92.6891 498.608 92.6891C501.35 92.6891 503.746 92.9738 505.801 93.5434C507.856 94.1134 509.57 94.9557 510.938 96.0705C512.311 97.1852 513.339 98.5604 514.021 100.195C514.707 101.83 515.048 103.738 515.048 105.918V129.849H505.69V125.539H505.234C504.676 126.381 504.003 127.124 503.214 127.768C502.43 128.412 501.54 128.957 500.552 129.403C499.56 129.849 498.458 130.184 497.24 130.407C496.022 130.63 494.729 130.741 493.36 130.741C491.327 130.741 489.516 130.494 487.917 129.998C486.318 129.502 484.985 128.809 483.922 127.917C482.855 127.025 482.058 125.947 481.522 124.684C480.99 123.421 480.725 122.021 480.725 120.485ZM496.177 124.052C497.342 124.052 498.471 123.879 499.56 123.532C500.654 123.185 501.629 122.64 502.492 121.897C503.356 121.154 504.025 120.225 504.507 119.11C504.99 117.995 505.234 116.695 505.234 115.208V112.012C505.079 112.26 504.875 112.47 504.623 112.644C504.37 112.817 504.091 112.966 503.786 113.09C503.48 113.214 503.152 113.325 502.798 113.424C502.439 113.524 502.036 113.622 501.58 113.722L495.871 114.614C494.906 114.762 494.069 114.985 493.36 115.282C492.647 115.579 492.076 115.939 491.646 116.36C491.216 116.781 490.898 117.252 490.694 117.772C490.49 118.293 490.393 118.875 490.393 119.518C490.393 120.212 490.517 120.844 490.769 121.414C491.026 121.984 491.394 122.467 491.876 122.863C492.355 123.26 492.953 123.557 493.661 123.755C494.374 123.953 495.211 124.052 496.177 124.052ZM524.942 84.3651V75.4463H535.372V84.3651H524.942ZM525.248 129.849V93.5806H535.066V129.849H525.248ZM545.722 129.849V93.5806H555.085V98.7831H555.386C555.895 97.7924 556.542 96.9128 557.33 96.1449C558.114 95.3769 558.991 94.7325 559.956 94.2126C560.917 93.6922 561.971 93.3082 563.114 93.0606C564.257 92.8126 565.484 92.6891 566.803 92.6891C568.783 92.6891 570.634 92.9614 572.362 93.5062C574.084 94.0514 575.595 94.9185 576.888 96.1077C578.181 97.2968 579.208 98.8699 579.97 100.827C580.732 102.784 581.113 105.125 581.113 107.85V129.849H571.294V109.039C571.294 107.404 571.13 106.017 570.798 104.878C570.47 103.738 569.988 102.821 569.354 102.128C568.721 101.434 567.959 100.926 567.069 100.604C566.183 100.282 565.182 100.121 564.066 100.121C562.848 100.121 561.719 100.356 560.678 100.827C559.638 101.298 558.738 102.004 557.977 102.945C557.215 103.886 556.617 105.014 556.187 106.327C555.758 107.64 555.541 109.114 555.541 110.749V129.849H545.722Z" fill="white"/>
<path d="M30.2422 19.2598L71.5632 69.8976L111.002 63.4789" stroke="white" stroke-width="0.983908"/>
<path d="M97.863 5.70898L71.5703 28.1747L143.876 47.4308L111.009 63.4778" stroke="white" stroke-width="0.983908"/>
<path d="M18.9766 28.1729L32.1231 76.3135L78.1359 111.617L132.548 107.805" stroke="white" stroke-width="0.983908"/>
<path d="M28.8369 19.2676L71.563 28.1721L111.003 63.4755L130.257 108.365L71.563 69.8942L32.1235 76.3129L9.11719 101.988L28.8369 127.663L58.4165 137.291L78.1363 111.616" stroke="white" stroke-width="0.983908"/>
<path d="M74.4951 34.5836C78.1255 34.5836 81.0684 31.7099 81.0684 28.1649C81.0684 24.6199 78.1255 21.7461 74.4951 21.7461C70.8648 21.7461 67.9219 24.6199 67.9219 28.1649C67.9219 31.7099 70.8648 34.5836 74.4951 34.5836Z" fill="white"/>
<path d="M71.5694 76.3164C75.1997 76.3164 78.1426 73.4425 78.1426 69.8977C78.1426 66.3524 75.1997 63.4785 71.5694 63.4785C67.939 63.4785 64.9961 66.3524 64.9961 69.8977C64.9961 73.4425 67.939 76.3164 71.5694 76.3164Z" fill="white"/>
<path d="M110.995 69.8935C114.625 69.8935 117.568 67.0196 117.568 63.4744C117.568 59.9295 114.625 57.0557 110.995 57.0557C107.365 57.0557 104.422 59.9295 104.422 63.4744C104.422 67.0196 107.365 69.8935 110.995 69.8935Z" fill="white"/>
<path d="M32.124 82.73C35.7543 82.73 38.6971 79.8566 38.6971 76.3113C38.6971 72.7664 35.7543 69.8926 32.124 69.8926C28.4937 69.8926 25.5508 72.7664 25.5508 76.3113C25.5508 79.8566 28.4937 82.73 32.124 82.73Z" fill="white"/>
<path d="M78.1436 118.035C81.7739 118.035 84.7169 115.161 84.7169 111.616C84.7169 108.071 81.7739 105.197 78.1436 105.197C74.5133 105.197 71.5703 108.071 71.5703 111.616C71.5703 115.161 74.5133 118.035 78.1436 118.035Z" fill="white"/>
<path d="M73.2017 143C113.63 143 146.403 110.988 146.403 71.5001C146.403 32.0116 113.63 0 73.2017 0C32.7735 0 0 32.0116 0 71.5001C0 110.988 32.7735 143 73.2017 143Z" stroke="white" stroke-width="3.21982"/>
</g>
<defs>
<clipPath id="clip0_332_672">
<rect width="581" height="143" fill="white"/>
</clipPath>
</defs>
</svg>
