<?xml version="1.0" encoding="utf-8"?>
<!-- Generator: Adobe Illustrator 26.4.1, SVG Export Plug-In . SVG Version: 6.00 Build 0)  -->
<svg version="1.1" id="Layer_1" xmlns="http://www.w3.org/2000/svg" xmlns:xlink="http://www.w3.org/1999/xlink" x="0px" y="0px"
	 viewBox="0 0 548 186" style="enable-background:new 0 0 548 186;" xml:space="preserve">
<style type="text/css">
	.st0{fill:#FFFFFF;}
</style>
<path class="st0" d="M221.9,51.2h9.8l34.2,79.9h-12.6l-8-19.7h-38l-7.9,19.7h-12.6L221.9,51.2z M241.3,101.8l-14.9-36.7h-0.2
	l-15.1,36.7H241.3z M285.7,51.2v49c0,2.5,0.3,5.1,1,7.8c0.7,2.6,1.8,5.1,3.4,7.3c1.6,2.3,3.6,4.1,6.2,5.5c2.6,1.4,5.7,2.1,9.5,2.1
	s6.9-0.7,9.5-2.1c2.6-1.4,4.6-3.3,6.2-5.5c1.6-2.3,2.7-4.7,3.4-7.3c0.7-2.7,1-5.3,1-7.8v-49h10.8v50.6c0,4.7-0.8,8.9-2.4,12.7
	c-1.6,3.8-3.8,7-6.5,9.8c-2.8,2.8-6.1,4.9-9.8,6.4c-3.8,1.5-7.8,2.3-12.2,2.3c-4.4,0-8.4-0.8-12.2-2.3c-3.8-1.5-7-3.6-9.8-6.4
	c-2.8-2.8-5-6.1-6.5-9.8c-1.6-3.8-2.4-8.1-2.4-12.7V51.2H285.7z M355.7,51.2h28.1c5.1,0,9.3,0.7,12.6,2.1c3.3,1.4,5.9,3.1,7.8,5.3
	c2,2.1,3.3,4.5,4.1,7.2c0.8,2.6,1.1,5.2,1.1,7.7c0,2.6-0.5,5-1.4,7.4c-0.9,2.3-2.2,4.5-3.9,6.4c-1.7,1.9-3.7,3.5-6.2,4.9
	c-2.4,1.3-5.1,2.1-8.1,2.4l22.7,36.4h-13.5l-20.3-35.2h-12.1V131h-10.8V51.2z M366.6,86.4h14.2c2.1,0,4.2-0.2,6.2-0.5
	c2.1-0.4,3.9-1,5.5-1.9c1.7-0.9,3-2.2,3.9-3.8c1-1.7,1.5-3.9,1.5-6.7c0-2.7-0.5-4.9-1.5-6.5c-1-1.7-2.3-3-3.9-3.9
	c-1.6-0.9-3.4-1.5-5.5-1.8c-2-0.4-4.1-0.6-6.2-0.6h-14.2V86.4z M449.7,51.2h9.8l34.2,79.9h-12.6l-8-19.7h-38l-7.9,19.7h-12.6
	L449.7,51.2z M469.1,101.8l-14.9-36.7H454l-15.1,36.7H469.1z"/>
<path class="st0" d="M156.7,86.6c-1.1-0.2-2.2-0.5-3.4-0.7c-0.3-2.7-0.9-5.3-1.7-7.8c15.2,2.5,25.1,6.4,25.1,10.8c0,0,0,0.1,0,0.1
	c-0.4,7.4-28.3,13.3-62.8,13.3c-34.7,0-62.8-6-62.8-13.5c0,0,0-0.1,0-0.1c0.2-4.4,10.2-8.3,25.6-10.7c-0.8,2.5-1.4,5.1-1.7,7.8
	c-1.4,0.2-2.7,0.5-3.9,0.8c-1.6,0.3-3.1,0.7-4.5,1.1v0c-1.4,0.4-2.7,0.8-3.9,1.2c2.2,0.8,5,1.5,8.3,2.3c1.1,0.2,2.3,0.5,3.6,0.7l0,0
	c10.4,1.9,24.1,3.1,39.3,3.1c15.4,0,29.3-1.2,39.8-3.2v0c1.1-0.2,2.1-0.4,3.1-0.6c3.4-0.7,6.1-1.5,8.3-2.3
	C162.8,88.1,160.1,87.3,156.7,86.6z"/>
<path class="st0" d="M161.2,65.6c0,0,0-0.1,0-0.1c0-4-10.5-7.4-25.9-9.1c3.7,2.4,6.9,5.5,9.6,9c0.2,0,0.4,0.1,0.6,0.1
	c-0.1,0-0.3,0.1-0.4,0.1l0,0c-7.8,1.6-18.7,2.7-30.9,2.7c-12.3,0-23.2-1.1-31-2.7l0,0c-0.1,0-0.2-0.1-0.4-0.1c0.2,0,0.3-0.1,0.5-0.1
	c2.7-3.5,5.9-6.5,9.6-9c-15.3,1.7-25.8,5.1-25.8,9.1v0l0,0c0,5,16.4,9.1,38.1,10c-1.6,0-3.2,0.1-4.8,0.2h26.8
	c-1.5-0.1-3-0.1-4.5-0.2C144.5,74.6,160.9,70.5,161.2,65.6z"/>
<path class="st0" d="M67.1,117.4c0-2.6,4.5-5,11.9-6.8c1.2,2.4,2.6,4.6,4.2,6.7c-0.1,0-0.2,0.1-0.4,0.1c0.2,0,0.3,0.1,0.5,0.1
	c0,0,0,0,0,0h0.2c7.8,1.6,18.6,2.6,30.7,2.6s22.9-1,30.7-2.6h0.1c0,0,0,0,0,0c0.2,0,0.4-0.1,0.6-0.1c-0.1,0-0.3-0.1-0.4-0.1
	c1.6-2.1,3-4.3,4.1-6.7c7.4,1.8,11.9,4.2,11.9,6.8c0,0.1,0,0.1,0,0.1c-0.4,5.6-21.3,10-47,10c-25.8,0-46.7-4.5-47-10
	C67.1,117.5,67.1,117.5,67.1,117.4z"/>
</svg>
