<svg width="36" height="36" viewBox="0 0 36 36" fill="none" xmlns="http://www.w3.org/2000/svg">
<path d="M13.5 16.875C19.7132 16.875 24.75 14.6084 24.75 11.8125C24.75 9.01656 19.7132 6.75 13.5 6.75C7.2868 6.75 2.25 9.01656 2.25 11.8125C2.25 14.6084 7.2868 16.875 13.5 16.875Z" stroke="#077CE0" stroke-width="2" stroke-linecap="round" stroke-linejoin="round"/>
<path d="M2.25 11.8125V17.4375C2.25 20.2359 7.28437 22.5 13.5 22.5C19.7156 22.5 24.75 20.2359 24.75 17.4375V11.8125" stroke="#077CE0" stroke-width="2" stroke-linecap="round" stroke-linejoin="round"/>
<path d="M9 16.4531V22.0781" stroke="#077CE0" stroke-width="2" stroke-linecap="round" stroke-linejoin="round"/>
<path d="M24.75 13.5984C29.8828 14.0765 33.75 16.1156 33.75 18.5624C33.75 21.3609 28.7156 23.6249 22.5 23.6249C19.7437 23.6249 17.2125 23.1749 15.2578 22.4437" stroke="#077CE0" stroke-width="2" stroke-linecap="round" stroke-linejoin="round"/>
<path d="M11.25 22.4016V24.1875C11.25 26.9859 16.2844 29.25 22.5 29.25C28.7156 29.25 33.75 26.9859 33.75 24.1875V18.5625" stroke="#077CE0" stroke-width="2" stroke-linecap="round" stroke-linejoin="round"/>
<path d="M27 23.2031V28.8281" stroke="#077CE0" stroke-width="2" stroke-linecap="round" stroke-linejoin="round"/>
<path d="M18 16.4531V28.8281" stroke="#077CE0" stroke-width="2" stroke-linecap="round" stroke-linejoin="round"/>
</svg>
