<svg width="707" height="203" viewBox="0 0 707 203" fill="none" xmlns="http://www.w3.org/2000/svg">
<g clip-path="url(#clip0_332_675)">
<path d="M6.97203 106.412C8.65643 98.4111 16.4468 90.6208 24.2371 92.3052C24.0266 94.6212 23.1844 96.3056 22.7633 97.1478C21.2894 99.885 23.1844 100.727 25.2899 99.885C27.1848 99.2533 31.6064 97.7795 31.6064 94.2001C31.3958 92.0946 29.5009 89.568 26.7637 88.0942C24.0266 86.6203 21.2894 86.1992 18.9734 86.1992C14.3413 86.1992 10.5514 88.0942 7.60368 90.4102C2.76103 94.4107 0.234434 100.095 0.0238846 105.991C-0.607765 119.677 11.3936 127.888 23.6055 127.888C49.2926 126.414 63.1888 109.781 66.5576 103.464C68.0315 100.727 66.5576 97.1478 65.2943 97.99C52.6614 109.149 37.5018 120.308 20.0261 121.571C10.5514 121.571 5.07708 115.466 6.97203 106.412Z" fill="white"/>
<path d="M123.637 100.095C128.69 98.4111 130.164 95.674 124.058 95.8845C122.163 95.8845 113.951 96.7267 104.056 96.7267C99.2126 96.7267 93.7383 96.5162 88.4745 95.8845C85.3163 92.0946 80.6842 89.3575 74.9993 88.5153C70.7883 88.3047 69.3145 90.6208 68.4723 93.5685C68.0512 93.5685 67.8406 93.779 67.4195 93.779C62.5769 95.4634 57.1026 105.57 58.5764 114.413C59.6292 120.308 64.8929 126.835 72.6833 127.256C82.3686 127.888 91.0011 122.624 92.8961 112.097C93.5277 108.939 93.3172 105.78 92.475 103.043C105.319 103.675 119.005 101.78 123.637 100.095ZM71.6305 98.4111L72.0516 97.99C74.9993 99.885 78.9998 101.148 83.8424 101.99C87.2112 109.57 82.5791 121.571 73.3149 121.993C69.3145 122.203 66.9984 119.887 65.9457 113.781C64.8929 107.886 68.8934 100.517 71.6305 98.4111Z" fill="white"/>
<path d="M127.003 117.15C127.635 119.677 133.109 123.888 134.793 122.414C143.005 115.255 148.9 104.096 159.638 97.1481C161.533 105.359 162.796 110.202 164.902 114.834C166.165 117.15 170.166 119.255 171.85 118.413C177.535 114.623 182.799 110.412 192.273 102.622C192.905 104.517 193.958 106.833 195.432 108.939C197.327 111.465 199.432 113.992 202.59 116.097C207.222 119.045 212.276 120.308 216.697 120.308C228.699 120.308 242.384 109.991 245.543 104.306C248.069 99.6747 245.332 97.9903 244.7 99.0431C241.753 104.096 218.803 114.413 212.065 114.413C209.117 114.413 206.591 113.36 204.275 111.886C200.064 108.307 199.011 100.727 196.905 96.5165C195.432 94.2004 191.431 92.0949 189.957 93.1477L169.534 109.781C167.639 102.411 167.428 97.9903 165.112 92.516C163.428 90.2 159.849 88.0945 158.164 88.9367C149.111 93.3582 141.952 101.78 134.583 109.781C134.372 102.833 135.214 99.0431 135.004 93.5688C135.635 90.8316 128.687 86.1995 128.056 89.7789C127.213 95.0426 126.582 101.148 126.582 107.886C126.582 110.833 126.792 113.992 127.003 117.15Z" fill="white"/>
<path d="M238.024 198.422C238.445 202.423 245.393 204.528 245.604 200.949C244.13 190.421 244.13 178.42 243.709 165.787C244.341 143.89 244.762 129.783 247.078 120.098L248.762 121.15C252.552 123.466 261.185 125.572 268.133 123.677H269.186C285.187 124.309 301.4 115.887 312.138 104.938C314.243 102.622 316.77 95.2527 314.243 97.1476C306.874 103.675 289.398 113.992 276.134 116.729C279.081 113.15 282.029 108.096 282.45 103.254C283.924 91.4628 270.659 87.0412 262.237 89.3573C256.132 91.0417 249.604 95.4632 244.13 103.885C244.762 89.5678 245.183 79.672 245.604 74.4082C245.815 72.9344 244.341 71.0394 242.235 69.9867C240.34 68.9339 238.445 68.9339 238.235 70.4078C236.55 82.1986 236.129 118.203 236.129 165.998C236.761 177.367 237.182 189.579 238.024 198.422ZM263.29 117.361C259.921 116.939 249.815 116.518 247.499 115.255V114.623C248.762 108.728 263.711 89.9889 273.186 95.4632C279.924 99.4637 270.659 115.255 263.29 117.361Z" fill="white"/>
<path d="M369.344 100.095C374.397 98.4111 375.871 95.674 369.765 95.8845C367.87 95.8845 359.659 96.7267 349.763 96.7267C344.92 96.7267 339.446 96.5162 334.182 95.8845C331.024 92.0946 326.392 89.3575 320.707 88.5153C316.496 88.3047 315.022 90.6208 314.18 93.5685C313.759 93.5685 313.548 93.779 313.127 93.779C308.284 95.4634 302.81 105.57 304.284 114.413C305.337 120.308 310.6 126.835 318.391 127.256C328.076 127.888 336.709 122.624 338.604 112.097C339.235 108.939 339.025 105.78 338.182 103.043C351.026 103.675 364.712 101.78 369.344 100.095ZM317.338 98.4111L317.759 97.99C320.707 99.885 324.707 101.148 329.55 101.99C332.919 109.57 328.287 121.571 319.022 121.993C315.022 122.203 312.706 119.887 311.653 113.781C310.6 107.886 314.601 100.517 317.338 98.4111Z" fill="white"/>
<path d="M369.759 125.993C372.918 127.256 377.971 127.888 383.235 127.888C388.709 127.888 394.183 127.256 397.973 126.204C403.447 124.73 407.448 118.834 402.816 114.834C398.605 111.465 392.288 108.307 384.287 103.885C380.076 101.359 375.234 99.2529 376.497 96.3052C378.813 90.8309 397.973 87.2516 405.763 84.5144C407.448 82.4089 403.237 78.4085 399.868 78.8296C389.13 80.3034 366.18 87.041 367.864 98.2002C368.707 104.517 374.602 106.622 380.076 109.781C384.287 112.097 392.288 116.097 397.552 118.834C392.078 120.098 383.656 121.15 376.918 121.15C374.181 121.15 371.865 120.94 369.97 120.519C365.338 119.466 367.233 124.73 369.759 125.993Z" fill="white"/>
<path d="M425.277 121.782C427.593 123.256 430.12 123.888 432.857 123.888C444.016 123.888 457.913 113.149 463.808 107.886C466.545 115.466 471.809 119.466 478.757 121.15C487.6 123.256 502.128 116.518 507.392 111.255C518.972 99.6742 515.814 94.4105 512.235 97.9898C504.655 106.412 486.547 117.15 475.809 115.044C472.019 113.992 470.967 109.781 471.177 106.201C471.598 102.201 473.493 98.4109 474.546 95.2527C476.02 92.7261 468.861 88.094 467.598 90.41L464.019 95.2527H463.808C458.544 92.9366 452.649 91.6733 446.754 91.6733C439.384 91.6733 432.226 93.5683 426.541 97.3582C421.277 100.938 418.961 105.57 418.961 110.202C418.961 114.623 421.066 118.624 425.277 121.782ZM429.067 117.15C425.909 116.939 424.646 114.623 425.277 112.097C427.593 102.411 441.49 98.4109 452.017 98.4109C455.175 98.4109 458.123 98.832 460.229 99.4637C452.859 107.254 439.174 115.887 429.067 117.15Z" fill="white"/>
<path d="M516.103 131.257C518.208 132.31 519.262 131.678 519.472 131.678C519.894 131.467 520.103 131.046 520.314 131.046C520.524 130.415 520.946 129.362 520.736 127.888L521.999 121.993L522.631 119.887L523.051 120.098C527.683 123.256 539.895 123.888 543.264 123.256L544.106 123.045H545.79C564.319 122.835 579.269 114.834 587.059 104.306C588.954 101.569 590.216 95.0419 588.111 97.1474C580.741 103.675 563.898 113.149 553.582 114.834L555.055 111.465C555.898 108.938 556.529 105.991 556.529 102.833C556.529 97.9896 555.055 92.9364 550.634 88.936L549.58 88.0938C547.896 86.4094 545.37 85.3566 543.475 85.1461C534.211 83.4617 520.735 100.938 517.155 109.57C516.103 98.8318 515.892 85.3566 515.892 71.6709C515.892 44.0888 516.735 16.2963 519.262 8.92703C519.894 7.66373 518.63 5.55824 516.946 4.29494C514.84 3.03163 512.735 3.03163 512.103 4.08438C509.366 11.6642 508.312 36.509 508.312 61.5645V68.3021C508.312 81.9878 508.734 95.463 509.156 106.201L510.84 119.677C511.472 123.045 511.893 125.782 512.735 127.256C512.735 127.467 512.735 127.888 513.366 128.52C513.366 128.73 514.629 130.204 516.103 131.257ZM524.314 115.676L523.894 115.466C533.158 101.99 538.631 93.5681 545.79 91.252H546.212L546.843 92.0942C548.106 93.3575 548.738 95.463 548.738 98.4107C548.738 108.307 540.317 116.939 530.632 116.939C528.526 116.939 526.42 116.518 524.314 115.676Z" fill="white"/>
<path d="M607.1 138.626C620.364 138.626 637.208 115.887 640.998 105.359C641.84 102.833 641.419 97.5688 639.314 100.517C636.156 104.517 610.679 138.837 599.73 132.099C595.098 128.941 593.414 113.992 593.414 95.2528C593.414 58.8276 599.52 8.29567 600.783 4.29522C600.783 3.24246 599.099 1.55807 596.993 0.505322C594.888 -0.336879 593.625 -0.126331 593.414 1.13696C590.677 9.98006 584.781 55.2483 584.781 90.1996C584.781 107.675 586.255 122.624 590.256 128.941C594.467 134.836 600.362 138.626 607.1 138.626Z" fill="white"/>
<path d="M670.825 128.099C685.353 127.256 698.828 116.939 704.724 104.728C707.672 98.8317 708.514 93.9892 703.671 99.0424C694.828 108.307 680.089 123.045 660.298 123.045C652.929 123.045 645.559 116.308 644.928 112.307C652.297 112.307 661.351 107.254 664.088 100.517C666.404 94.4102 660.298 88.0938 653.771 88.0938C643.454 88.5148 637.137 97.9895 637.137 107.254C637.137 109.36 637.558 111.465 638.19 113.36C642.401 126.414 658.403 128.73 670.825 128.099ZM657.14 95.2524C659.456 97.5684 653.56 103.254 644.717 107.254C644.507 101.99 652.718 90.8308 657.14 95.2524Z" fill="white"/>
</g>
<defs>
<clipPath id="clip0_332_675">
<rect width="707" height="203" fill="white"/>
</clipPath>
</defs>
</svg>
