<svg width="34" height="26" viewBox="0 0 34 26" fill="none" xmlns="http://www.w3.org/2000/svg">
<path d="M33.7767 18.8782L28.9955 2.95949C28.9036 2.63752 28.7392 2.34087 28.515 2.09224C28.2907 1.84361 28.0125 1.64962 27.7017 1.52511H27.6174L27.7017 1.49699C26.1329 0.868383 24.5086 0.388159 22.8502 0.0626117C22.7052 0.0339577 22.556 0.0341454 22.4111 0.0631642C22.2662 0.0921829 22.1284 0.149464 22.0057 0.231736C21.8829 0.314007 21.7776 0.419656 21.6957 0.542649C21.6138 0.665642 21.5569 0.803568 21.5283 0.948549C21.4975 1.09268 21.4958 1.24148 21.5231 1.3863C21.5504 1.53113 21.6062 1.66906 21.6874 1.79209C21.7685 1.91511 21.8733 2.02076 21.9957 2.10288C22.1181 2.185 22.2556 2.24196 22.4002 2.27042C23.033 2.39699 23.6517 2.55167 24.2564 2.72042C24.4791 2.83603 24.6568 3.02278 24.7612 3.25098C24.8656 3.47918 24.8907 3.73573 24.8325 3.97983C24.7743 4.22392 24.6361 4.44156 24.44 4.59812C24.2439 4.75468 24.0011 4.84118 23.7502 4.84386H23.6377C21.4706 4.2787 19.2397 3.99512 17.0002 4.00011C14.8132 3.99359 12.6345 4.2677 10.5174 4.81574C10.2479 4.88682 9.96175 4.8554 9.71418 4.72756C9.46661 4.59973 9.27529 4.38457 9.17726 4.12375C9.07924 3.86294 9.08149 3.57503 9.18357 3.31578C9.28566 3.05652 9.48032 2.84438 9.72986 2.72042H9.74392C10.3486 2.55167 10.9674 2.39699 11.6002 2.27042C11.7451 2.24183 11.8831 2.18495 12.0061 2.10303C12.1291 2.02112 12.2347 1.91578 12.317 1.79302C12.3993 1.67027 12.4565 1.53251 12.4856 1.38761C12.5146 1.24271 12.5148 1.09352 12.4861 0.948549C12.425 0.657565 12.2525 0.402013 12.0055 0.236477C11.7585 0.0709403 11.4566 0.00854256 11.1642 0.0626117C9.49983 0.39544 7.87068 0.885126 6.29861 1.52511C5.9878 1.64962 5.70961 1.84361 5.48536 2.09224C5.26111 2.34087 5.09674 2.63752 5.00486 2.95949L0.223606 18.8782C0.0995697 19.2944 0.0986295 19.7376 0.220899 20.1543C0.343169 20.5711 0.583423 20.9435 0.912669 21.2267C1.04203 21.3513 1.17818 21.4686 1.32048 21.5782H1.33454C3.61267 23.4345 6.60798 24.8548 9.98298 25.6704C10.0694 25.6981 10.1595 25.7123 10.2502 25.7126C10.5283 25.717 10.7982 25.6182 11.0078 25.4353C11.2174 25.2524 11.3517 24.9983 11.3849 24.7221C11.4182 24.4459 11.3479 24.1672 11.1876 23.9398C11.0274 23.7124 10.7886 23.5524 10.5174 23.4907C9.00008 23.1242 7.52498 22.6011 6.11579 21.9298C5.92292 21.7491 5.79984 21.5062 5.76814 21.2438C5.73643 20.9814 5.79813 20.7162 5.94242 20.4948C6.0867 20.2733 6.30435 20.1097 6.55719 20.0327C6.81004 19.9557 7.08193 19.9701 7.32517 20.0736C9.99704 21.2548 13.358 22.0001 17.0002 22.0001C20.6424 22.0001 24.0033 21.2548 26.6752 20.0736C26.9184 19.9701 27.1903 19.9557 27.4431 20.0327C27.696 20.1097 27.9136 20.2733 28.0579 20.4948C28.2022 20.7162 28.2639 20.9814 28.2322 21.2438C28.2005 21.5062 28.0774 21.7491 27.8845 21.9298C26.4754 22.6011 25.0003 23.1242 23.483 23.4907C23.2117 23.5524 22.9729 23.7124 22.8127 23.9398C22.6525 24.1672 22.5822 24.4459 22.6154 24.7221C22.6486 24.9983 22.783 25.2524 22.9925 25.4353C23.2021 25.6182 23.472 25.717 23.7502 25.7126C23.8409 25.7123 23.931 25.6981 24.0174 25.6704C27.3924 24.8548 30.3877 23.4345 32.6658 21.5782H32.6799C32.8222 21.4686 32.9583 21.3513 33.0877 21.2267C33.4169 20.9435 33.6572 20.5711 33.7794 20.1543C33.9017 19.7376 33.9008 19.2944 33.7767 18.8782ZM12.5002 16.9376C12.1664 16.9376 11.8402 16.8386 11.5626 16.6532C11.2851 16.4678 11.0688 16.2042 10.9411 15.8959C10.8134 15.5875 10.78 15.2482 10.8451 14.9209C10.9102 14.5936 11.0709 14.2929 11.3069 14.0569C11.5429 13.8209 11.8436 13.6601 12.171 13.595C12.4983 13.5299 12.8376 13.5633 13.1459 13.6911C13.4543 13.8188 13.7178 14.0351 13.9033 14.3126C14.0887 14.5901 14.1877 14.9164 14.1877 15.2501C14.1877 15.6977 14.0099 16.1269 13.6934 16.4434C13.3769 16.7598 12.9477 16.9376 12.5002 16.9376ZM21.5002 16.9376C21.1664 16.9376 20.8402 16.8386 20.5626 16.6532C20.2851 16.4678 20.0688 16.2042 19.9411 15.8959C19.8134 15.5875 19.78 15.2482 19.8451 14.9209C19.9102 14.5936 20.0709 14.2929 20.3069 14.0569C20.5429 13.8209 20.8436 13.6601 21.171 13.595C21.4983 13.5299 21.8376 13.5633 22.1459 13.6911C22.4543 13.8188 22.7178 14.0351 22.9033 14.3126C23.0887 14.5901 23.1877 14.9164 23.1877 15.2501C23.1877 15.6977 23.0099 16.1269 22.6934 16.4434C22.3769 16.7598 21.9477 16.9376 21.5002 16.9376Z" fill="#1D2130"/>
</svg>
