<svg width="34" height="26" viewBox="0 0 34 26" fill="none" xmlns="http://www.w3.org/2000/svg">
<path d="M33.7758 18.878L28.9945 2.95924C28.9026 2.63728 28.7382 2.34062 28.514 2.092C28.2897 1.84337 28.0116 1.64937 27.7008 1.52487H27.6164L27.7008 1.49674C26.1319 0.868139 24.5076 0.387915 22.8492 0.0623675C22.7042 0.0337136 22.555 0.0339013 22.4101 0.06292C22.2652 0.0919388 22.1275 0.14922 22.0047 0.231492C21.882 0.313763 21.7766 0.419412 21.6947 0.542405C21.6128 0.665398 21.5559 0.803324 21.5273 0.948305C21.4966 1.09243 21.4948 1.24124 21.5221 1.38606C21.5494 1.53088 21.6053 1.66882 21.6864 1.79184C21.7676 1.91487 21.8724 2.02052 21.9947 2.10264C22.1171 2.18476 22.2546 2.24171 22.3992 2.27018C23.032 2.39674 23.6508 2.55143 24.2554 2.72018C24.4782 2.83579 24.6558 3.02254 24.7602 3.25074C24.8646 3.47894 24.8897 3.73548 24.8315 3.97958C24.7733 4.22368 24.6352 4.44131 24.439 4.59787C24.2429 4.75443 24.0001 4.84093 23.7492 4.84362H23.6367C21.4696 4.27846 19.2387 3.99487 16.9992 3.99987C14.8123 3.99335 12.6335 4.26746 10.5164 4.81549C10.247 4.88658 9.96077 4.85516 9.7132 4.72732C9.46563 4.59948 9.27431 4.38432 9.17629 4.12351C9.07826 3.86269 9.08051 3.57478 9.1826 3.31553C9.28468 3.05628 9.47934 2.84414 9.72888 2.72018H9.74294C10.3476 2.55143 10.9664 2.39674 11.5992 2.27018C11.7442 2.24158 11.8821 2.1847 12.0051 2.10279C12.1281 2.02087 12.2337 1.91553 12.316 1.79278C12.3983 1.67002 12.4556 1.53226 12.4846 1.38737C12.5136 1.24247 12.5138 1.09327 12.4851 0.948305C12.424 0.657321 12.2515 0.401769 12.0045 0.236233C11.7576 0.0706961 11.4556 0.00829842 11.1633 0.0623675C9.49885 0.395196 7.86971 0.884882 6.29763 1.52487C5.98682 1.64937 5.70864 1.84337 5.48438 2.092C5.26013 2.34062 5.09577 2.63728 5.00388 2.95924L0.22263 18.878C0.0985931 19.2942 0.0976529 19.7374 0.219923 20.1541C0.342192 20.5708 0.582447 20.9432 0.911692 21.2264C1.04106 21.351 1.1772 21.4684 1.3195 21.578H1.33357C3.61169 23.4342 6.607 24.8546 9.982 25.6702C10.0684 25.6978 10.1585 25.7121 10.2492 25.7124C10.5273 25.7168 10.7973 25.618 11.0068 25.435C11.2164 25.2521 11.3508 24.998 11.384 24.7218C11.4172 24.4456 11.3469 24.1669 11.1867 23.9395C11.0264 23.7121 10.7876 23.5522 10.5164 23.4905C8.99911 23.124 7.524 22.6009 6.11482 21.9296V21.9296C5.92194 21.7488 5.79886 21.506 5.76716 21.2436C5.73546 20.9812 5.79716 20.716 5.94144 20.4945C6.08572 20.2731 6.30338 20.1095 6.55622 20.0324C6.80906 19.9554 7.08095 19.9699 7.32419 20.0733C9.99607 21.2546 13.357 21.9999 16.9992 21.9999C20.6414 21.9999 24.0023 21.2546 26.6742 20.0733C26.9174 19.9699 27.1893 19.9554 27.4422 20.0324C27.695 20.1095 27.9127 20.2731 28.0569 20.4945C28.2012 20.716 28.2629 20.9812 28.2312 21.2436C28.1995 21.506 28.0764 21.7488 27.8836 21.9296C26.4744 22.6009 24.9993 23.124 23.482 23.4905C23.2107 23.5522 22.9719 23.7121 22.8117 23.9395C22.6515 24.1669 22.5812 24.4456 22.6144 24.7218C22.6476 24.998 22.782 25.2521 22.9916 25.435C23.2011 25.618 23.471 25.7168 23.7492 25.7124C23.8399 25.7121 23.93 25.6978 24.0164 25.6702C27.3914 24.8546 30.3867 23.4342 32.6648 21.578H32.6789C32.8212 21.4684 32.9573 21.351 33.0867 21.2264C33.4159 20.9432 33.6562 20.5708 33.7785 20.1541C33.9007 19.7374 33.8998 19.2942 33.7758 18.878V18.878ZM12.4992 16.9374C12.1654 16.9374 11.8392 16.8384 11.5617 16.653C11.2842 16.4675 11.0679 16.204 10.9401 15.8956C10.8124 15.5873 10.779 15.248 10.8441 14.9207C10.9092 14.5933 11.0699 14.2926 11.3059 14.0566C11.5419 13.8206 11.8426 13.6599 12.17 13.5948C12.4973 13.5297 12.8366 13.5631 13.145 13.6908C13.4533 13.8185 13.7169 14.0348 13.9023 14.3123C14.0877 14.5899 14.1867 14.9161 14.1867 15.2499C14.1867 15.6974 14.0089 16.1266 13.6924 16.4431C13.376 16.7596 12.9467 16.9374 12.4992 16.9374ZM21.4992 16.9374C21.1654 16.9374 20.8392 16.8384 20.5617 16.653C20.2842 16.4675 20.0679 16.204 19.9401 15.8956C19.8124 15.5873 19.779 15.248 19.8441 14.9207C19.9092 14.5933 20.0699 14.2926 20.3059 14.0566C20.5419 13.8206 20.8426 13.6599 21.17 13.5948C21.4973 13.5297 21.8366 13.5631 22.145 13.6908C22.4533 13.8185 22.7169 14.0348 22.9023 14.3123C23.0877 14.5899 23.1867 14.9161 23.1867 15.2499C23.1867 15.6974 23.0089 16.1266 22.6924 16.4431C22.376 16.7596 21.9467 16.9374 21.4992 16.9374Z" fill="#F2F5F6"/>
</svg>
