<svg width="524" height="225" viewBox="0 0 524 225" fill="none" xmlns="http://www.w3.org/2000/svg">
<g clip-path="url(#clip0_332_673)">
<path d="M86.1875 12.2861V0H123.963V106.357H86.1875V12.2861Z" fill="white"/>
<path d="M164.121 127.262V114.976H201.896V221.333H164.121V127.262Z" fill="white"/>
<path d="M399.754 12.2861V0H437.529V106.357H399.754V12.2861Z" fill="white"/>
<path d="M164.121 12.2861V0H201.896V106.357H164.121V12.2861Z" fill="white"/>
<path d="M359.598 114.977V221.333H321.823V209.598H321.456C318.338 214.732 313.754 218.583 308.069 221.15C302.202 223.717 295.967 225.001 289.365 225.001C273.962 225.001 261.126 219.5 250.857 208.314C240.771 197.128 235.637 183.742 235.637 168.155C235.637 152.568 240.588 139.182 250.673 128.179C260.759 117.177 273.412 111.676 288.999 111.676C303.118 111.676 314.121 116.26 322.006 125.612V115.16H359.598V114.977ZM316.688 151.101C312.287 146.517 306.419 144.133 298.901 144.133C291.382 144.133 285.514 146.517 281.113 151.101C276.712 155.686 274.512 161.37 274.512 168.155C274.512 175.123 276.712 180.808 281.113 185.209C285.514 189.61 291.382 191.994 298.901 191.994C306.419 191.994 312.287 189.793 316.688 185.209C321.089 180.808 323.29 174.94 323.29 168.155C323.106 161.554 321.089 155.869 316.688 151.101Z" fill="white"/>
<path d="M123.961 114.977V221.333H86.1858V209.598H85.8191C82.7017 214.732 78.1174 218.583 72.4328 221.15C66.5648 223.717 60.3301 225.001 53.7286 225.001C38.3252 225.001 25.489 219.5 15.22 208.314C5.13447 197.128 0 183.742 0 168.155C0 152.568 4.9511 139.182 15.0367 128.179C25.1223 117.177 37.7751 111.676 53.3619 111.676C67.4817 111.676 78.4841 116.26 86.3692 125.612V115.16H123.961V114.977ZM81.0514 151.101C76.6504 146.517 70.7824 144.133 63.2641 144.133C55.7457 144.133 49.8778 146.517 45.4768 151.101C41.0758 155.686 38.8753 161.37 38.8753 168.155C38.8753 175.123 41.0758 180.808 45.4768 185.209C49.8778 189.61 55.7457 191.994 63.2641 191.994C70.7824 191.994 76.6504 189.793 81.0514 185.209C85.4523 180.808 87.6528 174.94 87.6528 168.155C87.4694 161.554 85.269 155.869 81.0514 151.101Z" fill="white"/>
<path d="M437.533 114.975V125.428C445.418 116.259 456.421 111.491 470.54 111.491C485.944 111.491 498.78 116.992 508.866 127.995C518.951 138.997 523.902 152.384 523.902 167.97C523.902 183.557 518.768 196.944 508.682 208.129C498.597 219.315 485.76 224.816 470.174 224.816C463.572 224.816 457.338 223.533 451.47 220.966C445.602 218.398 441.201 214.547 438.083 209.413H437.716V221.149H399.941V114.792H437.533V114.975ZM436.249 168.337C436.249 175.305 438.45 180.99 442.851 185.391C447.252 189.792 453.12 192.176 460.638 192.176C468.157 192.176 474.025 189.975 478.426 185.391C482.827 180.99 485.027 175.122 485.027 168.337C485.027 161.552 482.827 155.868 478.426 151.283C474.025 146.699 468.157 144.315 460.638 144.315C453.12 144.315 447.252 146.699 442.851 151.283C438.45 155.868 436.249 161.552 436.249 168.337Z" fill="white"/>
</g>
<defs>
<clipPath id="clip0_332_673">
<rect width="524" height="225" fill="white"/>
</clipPath>
</defs>
</svg>
