<svg width="28" height="31" viewBox="0 0 28 31" fill="none" xmlns="http://www.w3.org/2000/svg">
<path d="M27.5 27.5001C27.5 27.7984 27.3815 28.0846 27.1705 28.2956C26.9595 28.5065 26.6734 28.6251 26.375 28.6251C25.1827 28.6214 24.0402 28.1461 23.1971 27.303C22.354 26.4598 21.8787 25.3174 21.875 24.1251V23.0001C21.875 22.4033 21.6379 21.831 21.216 21.4091C20.794 20.9871 20.2217 20.7501 19.625 20.7501H17.9375V26.3751C17.9375 26.9718 18.1746 27.5441 18.5965 27.9661C19.0185 28.388 19.5908 28.6251 20.1875 28.6251C20.4859 28.6251 20.772 28.7436 20.983 28.9546C21.194 29.1656 21.3125 29.4517 21.3125 29.7501C21.3125 30.0484 21.194 30.3346 20.983 30.5456C20.772 30.7565 20.4859 30.8751 20.1875 30.8751C18.9952 30.8714 17.8527 30.3961 17.0096 29.553C16.1665 28.7098 15.6912 27.5674 15.6875 26.3751V20.7501H12.3125V26.3751C12.3088 27.5674 11.8335 28.7098 10.9904 29.553C10.1473 30.3961 9.00483 30.8714 7.8125 30.8751C7.51413 30.8751 7.22798 30.7565 7.017 30.5456C6.80603 30.3346 6.6875 30.0484 6.6875 29.7501C6.6875 29.4517 6.80603 29.1656 7.017 28.9546C7.22798 28.7436 7.51413 28.6251 7.8125 28.6251C8.40924 28.6251 8.98153 28.388 9.40349 27.9661C9.82545 27.5441 10.0625 26.9718 10.0625 26.3751V20.7501H8.375C7.77826 20.7501 7.20597 20.9871 6.78401 21.4091C6.36205 21.831 6.125 22.4033 6.125 23.0001V24.1251C6.12129 25.3174 5.64599 26.4598 4.80288 27.303C3.95977 28.1461 2.81733 28.6214 1.625 28.6251C1.32663 28.6251 1.04048 28.5065 0.829505 28.2956C0.618527 28.0846 0.5 27.7984 0.5 27.5001C0.5 27.2017 0.618527 26.9156 0.829505 26.7046C1.04048 26.4936 1.32663 26.3751 1.625 26.3751C2.22174 26.3751 2.79403 26.138 3.21599 25.7161C3.63795 25.2941 3.875 24.7218 3.875 24.1251V23.0001C3.87593 22.2435 4.067 21.4993 4.43067 20.8358C4.79434 20.1724 5.31894 19.611 5.95625 19.2032C4.9624 18.4743 4.15422 17.5216 3.59718 16.4221C3.04014 15.3227 2.74991 14.1076 2.75 12.8751V11.7501C2.76404 10.3526 3.1369 8.98227 3.83281 7.77038C3.48998 6.66037 3.38047 5.49145 3.51115 4.33708C3.64183 3.18271 4.00989 2.06785 4.59219 1.06257C4.68834 0.890176 4.82924 0.746925 5.00001 0.647924C5.17079 0.548924 5.36512 0.497844 5.5625 0.50007C6.87296 0.496775 8.16599 0.800303 9.33811 1.38636C10.5102 1.97242 11.5289 2.82473 12.3125 3.87507H15.6875C16.4711 2.82473 17.4898 1.97242 18.6619 1.38636C19.834 0.800303 21.127 0.496775 22.4375 0.50007C22.6349 0.497844 22.8292 0.548924 23 0.647924C23.1708 0.746925 23.3117 0.890176 23.4078 1.06257C23.9901 2.06785 24.3582 3.18271 24.4889 4.33708C24.6195 5.49145 24.51 6.66037 24.1672 7.77038C24.8631 8.98227 25.236 10.3526 25.25 11.7501V12.8751C25.2501 14.1076 24.9599 15.3227 24.4028 16.4221C23.8458 17.5216 23.0376 18.4743 22.0437 19.2032C22.6811 19.611 23.2057 20.1724 23.5693 20.8358C23.933 21.4993 24.1241 22.2435 24.125 23.0001V24.1251C24.125 24.7218 24.3621 25.2941 24.784 25.7161C25.206 26.138 25.7783 26.3751 26.375 26.3751C26.6734 26.3751 26.9595 26.4936 27.1705 26.7046C27.3815 26.9156 27.5 27.2017 27.5 27.5001Z" fill="#1D2130"/>
</svg>
