<svg width="617" height="380" viewBox="0 0 617 380" fill="none" xmlns="http://www.w3.org/2000/svg">
<g clip-path="url(#clip0_318_569)">
<g filter="url(#filter0_f_318_569)">
<ellipse cx="250.652" cy="189.5" rx="63.5" ry="62.5" fill="white" fill-opacity="0.24"/>
</g>
<rect x="553.152" y="78" width="64" height="64" rx="12" fill="#077CE0"/>
<path d="M585.209 133C597.941 133 608.262 122.703 608.262 110C608.262 97.2975 597.941 87 585.209 87C572.477 87 562.156 97.2975 562.156 110C562.156 122.703 572.477 133 585.209 133Z" fill="white"/>
<path fill-rule="evenodd" clip-rule="evenodd" d="M583.863 100.127H586.246V120.897H583.863V100.127Z" fill="#097DE0"/>
<path fill-rule="evenodd" clip-rule="evenodd" d="M582.515 109.898V107.416C580.603 106.478 579.288 104.515 579.288 102.247C579.288 99.0681 581.871 96.4903 585.058 96.4903C588.636 96.4903 591.22 99.0681 591.22 102.247C591.22 103.048 591.055 103.811 590.659 104.718L589.641 101.417L587.602 102.053L589.411 108.922L596.432 106.345L595.579 104.336L592.96 105.23C593.434 104.205 593.527 103.451 593.527 102.247C593.527 97.7957 589.911 94.1875 585.058 94.1875C580.597 94.1875 576.98 97.7957 576.98 102.247C576.98 105.811 579.3 108.834 582.515 109.898Z" fill="#097DE0"/>
<path fill-rule="evenodd" clip-rule="evenodd" d="M587.601 111.126V113.608C589.513 114.547 590.828 116.509 590.828 118.777C590.828 121.956 588.245 124.534 585.058 124.534C581.48 124.534 578.896 121.956 578.896 118.777C578.896 117.976 579.061 117.213 579.457 116.306L580.474 119.607L582.514 118.971L580.705 112.102L573.684 114.679L574.537 116.688L577.156 115.794C576.682 116.819 576.589 117.573 576.589 118.777C576.589 123.228 580.205 126.837 585.058 126.837C589.519 126.837 593.135 123.228 593.135 118.777C593.135 115.213 590.816 112.19 587.601 111.126Z" fill="#097DE0"/>
<rect x="561.152" y="238" width="48" height="48" rx="12" fill="#077CE0"/>
<rect x="521.152" y="298" width="20" height="20" rx="4" fill="#077CE0"/>
<rect x="539.152" y="38" width="20" height="20" rx="4" fill="#077CE0"/>
<path d="M583.391 262.498L593.686 268.265C593.769 268.314 593.863 268.34 593.96 268.341C594.056 268.342 594.151 268.318 594.235 268.271C594.319 268.224 594.389 268.157 594.437 268.075C594.485 267.993 594.51 267.9 594.51 267.806V257.183C594.511 257.088 594.486 256.995 594.438 256.913C594.39 256.831 594.32 256.763 594.236 256.717C594.151 256.67 594.056 256.647 593.959 256.649C593.863 256.65 593.768 256.678 593.686 256.728L583.391 262.498Z" fill="white"/>
<path d="M593.465 254.175L586.428 249.113C586.354 249.058 586.269 249.022 586.178 249.007C586.087 248.993 585.994 249 585.907 249.029C585.819 249.058 585.741 249.108 585.678 249.174C585.615 249.24 585.57 249.32 585.546 249.407L582.977 260.682L593.404 255.044C593.483 255.004 593.55 254.945 593.6 254.872C593.649 254.799 593.678 254.715 593.684 254.628C593.69 254.541 593.673 254.454 593.635 254.375C593.597 254.297 593.538 254.229 593.465 254.179" fill="white"/>
<path d="M586.419 275.88L593.465 270.818C593.538 270.767 593.597 270.699 593.635 270.62C593.674 270.541 593.691 270.453 593.685 270.366C593.679 270.278 593.651 270.194 593.602 270.12C593.554 270.046 593.487 269.986 593.408 269.944L582.977 264.307L585.546 275.582C585.568 275.67 585.611 275.751 585.672 275.818C585.733 275.885 585.811 275.937 585.897 275.967C585.984 275.998 586.077 276.007 586.168 275.994C586.259 275.981 586.345 275.946 586.419 275.892" fill="white"/>
<path d="M580.712 262.294L583.389 250.048C583.409 249.946 583.398 249.841 583.357 249.746C583.316 249.65 583.247 249.569 583.159 249.513C583.07 249.456 582.967 249.426 582.861 249.428C582.755 249.429 582.652 249.461 582.565 249.52L575.709 254.663C575.535 254.793 575.394 254.961 575.298 255.153C575.202 255.345 575.152 255.556 575.153 255.77V268.818C575.149 269.035 575.197 269.25 575.293 269.446C575.39 269.642 575.532 269.813 575.709 269.945L582.532 275.067C582.619 275.126 582.722 275.158 582.828 275.16C582.934 275.161 583.037 275.132 583.126 275.075C583.214 275.018 583.283 274.937 583.324 274.842C583.365 274.746 583.376 274.641 583.356 274.54L580.712 262.294Z" fill="white"/>
<rect x="521.152" y="162" width="56" height="56" rx="12" fill="#077CE0"/>
<path d="M540.912 185.103C540.698 184.859 540.434 184.736 540.12 184.736H533.7C533.643 184.736 533.597 184.718 533.561 184.682C533.526 184.647 533.508 184.606 533.508 184.563V180.243C533.508 180.2 533.526 180.16 533.561 180.124C533.597 180.088 533.643 180.07 533.7 180.07H540.484C542.196 180.07 543.673 180.769 544.914 182.166L546.562 184.174L543.352 188.084L540.912 185.103ZM552.768 182.144C554.009 180.762 555.493 180.07 557.219 180.07H563.981C564.038 180.07 564.081 180.085 564.11 180.113C564.138 180.142 564.152 180.185 564.152 180.243V184.563C564.152 184.606 564.138 184.647 564.11 184.682C564.081 184.718 564.038 184.736 563.981 184.736H557.562C557.248 184.736 556.984 184.859 556.77 185.103L552.04 190.849L556.791 196.639C557.005 196.869 557.261 196.984 557.562 196.984H563.981C564.038 196.984 564.081 197.002 564.11 197.038C564.138 197.075 564.152 197.122 564.152 197.179V201.499C564.152 201.542 564.138 201.582 564.11 201.618C564.081 201.654 564.038 201.672 563.981 201.672H557.219C555.493 201.672 554.016 200.973 552.789 199.576L548.852 194.781L544.914 199.576C543.673 200.973 542.189 201.672 540.463 201.672H533.7C533.643 201.672 533.6 201.654 533.572 201.618C533.543 201.582 533.529 201.535 533.529 201.477V197.157C533.529 197.114 533.543 197.074 533.572 197.038C533.6 197.002 533.643 196.984 533.7 196.984H540.12C540.419 196.984 540.683 196.862 540.912 196.616L545.555 190.957L552.768 182.144Z" fill="#00DCFF"/>
<path d="M540.912 185.103C540.698 184.859 540.434 184.736 540.12 184.736H533.7C533.643 184.736 533.597 184.718 533.561 184.682C533.526 184.647 533.508 184.606 533.508 184.563V180.243C533.508 180.2 533.526 180.16 533.561 180.124C533.597 180.088 533.643 180.07 533.7 180.07H540.484C542.196 180.07 543.673 180.769 544.914 182.166L546.562 184.174L543.352 188.084L540.912 185.103ZM552.768 182.144C554.009 180.762 555.493 180.07 557.219 180.07H563.981C564.038 180.07 564.081 180.085 564.11 180.113C564.138 180.142 564.152 180.185 564.152 180.243V184.563C564.152 184.606 564.138 184.647 564.11 184.682C564.081 184.718 564.038 184.736 563.981 184.736H557.562C557.248 184.736 556.984 184.859 556.77 185.103L552.04 190.849L556.791 196.639C557.005 196.869 557.261 196.984 557.562 196.984H563.981C564.038 196.984 564.081 197.002 564.11 197.038C564.138 197.075 564.152 197.122 564.152 197.179V201.499C564.152 201.542 564.138 201.582 564.11 201.618C564.081 201.654 564.038 201.672 563.981 201.672H557.219C555.493 201.672 554.016 200.973 552.789 199.576L548.852 194.781L544.914 199.576C543.673 200.973 542.189 201.672 540.463 201.672H533.7C533.643 201.672 533.6 201.654 533.572 201.618C533.543 201.582 533.529 201.535 533.529 201.477V197.157C533.529 197.114 533.543 197.074 533.572 197.038C533.6 197.002 533.643 196.984 533.7 196.984H540.12C540.419 196.984 540.683 196.862 540.912 196.616L545.555 190.957L552.768 182.144Z" fill="white"/>
<rect x="418.98" y="196.099" width="37.4208" height="30.4044" rx="7.01639" fill="white"/>
<path d="M344.141 169.372C343.588 169.372 343.141 169.82 343.141 170.372C343.141 170.924 343.588 171.372 344.141 171.372L344.141 169.372ZM486.345 171.079C486.736 170.689 486.736 170.055 486.345 169.665L479.981 163.301C479.591 162.91 478.957 162.91 478.567 163.301C478.176 163.692 478.176 164.325 478.567 164.715L484.224 170.372L478.567 176.029C478.176 176.419 478.176 177.053 478.567 177.443C478.957 177.834 479.591 177.834 479.981 177.443L486.345 171.079ZM344.141 171.372L485.638 171.372L485.638 169.372L344.141 169.372L344.141 171.372Z" fill="white"/>
<path d="M485.637 212.301C486.189 212.301 486.637 211.853 486.637 211.301C486.637 210.748 486.189 210.301 485.637 210.301V212.301ZM343.432 210.594C343.042 210.984 343.042 211.617 343.432 212.008L349.796 218.372C350.187 218.762 350.82 218.762 351.211 218.372C351.601 217.981 351.601 217.348 351.211 216.958L345.554 211.301L351.211 205.644C351.601 205.253 351.601 204.62 351.211 204.23C350.82 203.839 350.187 203.839 349.796 204.23L343.432 210.594ZM485.637 210.301L344.139 210.301V212.301L485.637 212.301V210.301Z" fill="white"/>
<path d="M432.181 206.952H428.757V216.775H430.146V213.464H432.181C434.426 213.464 435.773 212.299 435.773 210.208C435.773 208.117 434.426 206.952 432.181 206.952ZM430.146 212.313V208.103H432.181C433.64 208.103 434.384 208.987 434.384 210.208C434.384 211.429 433.64 212.313 432.181 212.313H430.146ZM440.485 209.647C439.432 209.647 438.45 210.194 437.889 211.457V209.759H436.5V216.775H437.889V214.151C437.889 210.938 439.362 210.811 439.966 210.811C440.85 210.811 441.046 211.794 441.046 212.818V216.775H442.45V212.818C442.45 211.499 442.45 209.647 440.485 209.647ZM443.244 206.952H444.633V216.775H443.244V206.952Z" fill="#151F31"/>
<rect x="359.344" y="154" width="97.0601" height="30.4044" rx="7.01639" fill="white"/>
<path d="M378.087 172.222L376.123 164.855H374.705L372.741 172.222L370.538 164.855H369.008L372.081 174.678H373.47L375.421 167.479L377.357 174.678H378.747L381.82 164.855H380.29L378.087 172.222ZM389.005 164.855H382.55V174.678H389.005V173.429H383.939V170.384H388.233V169.135H383.939V166.104H389.005V164.855ZM397.309 164.855H389.591V166.104H392.762V174.678H394.151V166.104H397.309V164.855ZM404.14 169.135H399.397V164.855H398.008V174.678H399.397V170.384H404.14V174.678H405.53V164.855H404.14V169.135ZM412.278 172.868L410.51 167.661H409.036L411.66 174.678H412.881L415.505 167.661H414.032L412.278 172.868ZM417.414 172.503C417.54 173.274 418.242 173.639 419.027 173.639C419.841 173.639 420.627 173.274 420.627 172.432C420.627 170.861 416.207 172.643 416.207 169.696C416.207 167.675 418.284 167.563 419.027 167.563C419.729 167.563 421.525 167.661 421.834 169.219L420.571 169.584C420.403 168.854 419.813 168.602 419.027 168.602C418.228 168.602 417.582 168.882 417.582 169.696C417.582 171.324 422.002 169.444 422.002 172.432C422.002 174.58 419.799 174.762 419.027 174.762C418.326 174.762 416.305 174.594 416.08 172.783L417.414 172.503ZM428.865 164.855H425.539V174.678H428.865C431.601 174.678 433.861 173.106 433.861 169.766C433.861 166.426 431.601 164.855 428.865 164.855ZM426.928 173.513V166.02H428.865C430.801 166.02 432.415 167.1 432.415 169.766C432.415 172.418 430.815 173.513 428.865 173.513H426.928ZM443.27 174.678L439.565 164.855H438.176L434.471 174.678H436.001L436.955 171.997H440.786L441.74 174.678H443.27ZM438.878 166.665L440.365 170.819H437.39L438.878 166.665ZM443.998 164.855H445.388V174.678H443.998V164.855Z" fill="#151F32"/>
<rect y="325.771" width="113.432" height="53.7924" rx="7.01639" fill="#077CE0"/>
<path d="M29.6543 355.255C29.8414 357.407 31.8294 358.108 33.5367 358.108C35.3142 358.108 37.2788 357.407 37.2788 354.998C37.2788 350.32 27.7599 354.694 27.7599 348.028C27.7599 345.151 30.0987 343.304 33.4666 343.351C36.3199 343.397 38.5184 344.871 38.8926 347.303L36.7175 347.701C36.507 345.9 34.9868 345.175 33.4666 345.175C31.8528 345.175 30.0987 345.876 30.0987 348.028C30.0987 352.215 39.6176 347.864 39.6176 354.998C39.6176 357.149 38.4248 360.073 33.5367 360.073C28.9059 360.073 27.6196 357.687 27.4091 355.629L29.6543 355.255ZM46.0698 348.122H44.1519V344.988L41.8365 345.923V348.122H39.9187V349.969H41.8365V356.962C41.8365 359.254 42.1873 359.956 45.0875 359.956H46.0698V357.828H45.0875C44.5261 357.828 44.1519 357.664 44.1519 356.962V349.969H46.0698V348.122ZM52.0194 348.192C49.7508 348.169 47.5056 349.057 47.108 351.817L49.2129 352.215C49.5169 350.367 50.85 350.11 52.0194 350.11C53.2824 350.11 54.6389 350.694 54.6389 352.121C54.6389 354.32 46.6402 351.232 46.6402 356.635C46.6402 360.634 52.7679 361.359 54.6389 357.945V359.956H57.0011V352.776C57.0011 349.268 54.5219 348.215 52.0194 348.192ZM49.1193 356.635C49.1193 353.782 53.1654 354.834 54.6389 353.852V354.904C54.6389 359.465 49.1193 359.582 49.1193 356.635ZM65.473 348.262L60.6317 353.454V343.584H58.2929V359.956H60.6317V356.284L62.035 354.811L65.9875 359.933H68.6304L63.5084 353.267L68.2796 348.262H65.473ZM68.6304 359.933L68.6538 359.956V359.933H68.6304ZM79.1336 354.109C79.1336 350.063 76.5141 348.145 73.4503 348.122C70.3865 348.098 67.767 350.063 67.767 354.109C67.767 358.155 70.3865 360.12 73.4503 360.096C75.7657 360.073 77.9174 358.974 78.8529 356.705L76.8416 355.91C76.2101 357.454 74.8536 358.132 73.4503 358.155C71.7898 358.179 70.3397 357.22 70.0357 355.045H79.0634C79.1102 354.741 79.1336 354.436 79.1336 354.109ZM73.4503 350.063C75.0875 350.086 76.5141 350.975 76.865 353.103H70.0357C70.3865 350.975 71.8132 350.04 73.4503 350.063ZM86.6475 348.075C84.7297 348.075 83.4434 348.777 82.695 350.414V348.262H80.3562V359.956H82.695V355.583C82.695 351.303 84.0047 350.133 86.6943 350.133V348.075H86.6475Z" fill="white"/>
<rect y="1.84766" width="113.432" height="53.7924" rx="7.01639" fill="#077CE0"/>
<path d="M39.0577 19.3227H26.1943V21.4043H31.48V35.6943H33.7954V21.4043H39.0577V19.3227ZM44.1852 23.8132C42.2673 23.8132 40.981 24.5149 40.2326 26.152V24.0003H37.8938V35.6943H40.2326V31.3208C40.2326 27.0408 41.5423 25.8714 44.2319 25.8714V23.8132H44.1852ZM49.778 23.9302C47.5094 23.9068 45.2641 24.7955 44.8665 27.5553L46.9714 27.9529C47.2755 26.1053 48.6086 25.848 49.778 25.848C51.0409 25.848 52.3974 26.4327 52.3974 27.8594C52.3974 30.0578 44.3988 26.9706 44.3988 32.3732C44.3988 36.3726 50.5264 37.0976 52.3974 33.683V35.6943H54.7596V28.5142C54.7596 25.006 52.2805 23.9536 49.778 23.9302ZM46.8779 32.3732C46.8779 29.5199 50.924 30.5724 52.3974 29.5901V30.6425C52.3974 35.2032 46.8779 35.3201 46.8779 32.3732ZM65.0792 26.0117C64.2372 24.5149 62.8106 23.8366 60.9629 23.86C57.8757 23.8834 55.8643 25.8012 55.8643 29.8473C55.8643 33.8935 57.8757 35.8347 60.9629 35.8347C62.8106 35.8347 64.2372 35.1798 65.0792 33.683V35.6943H67.418V19.3227H65.0792V26.0117ZM61.571 34.0104C59.4895 34.0104 58.1564 32.5837 58.1564 29.8473C58.1564 27.1109 59.4895 25.7077 61.571 25.6843C63.4421 25.6609 65.0792 26.7134 65.0792 29.8473C65.0792 32.9813 63.4421 34.0104 61.571 34.0104ZM79.9984 29.8473C79.9984 25.8012 77.3789 23.8834 74.3151 23.86C71.2513 23.8366 68.6318 25.8012 68.6318 29.8473C68.6318 33.8935 71.2513 35.8581 74.3151 35.8347C76.6305 35.8113 78.7822 34.712 79.7177 32.4434L77.7063 31.6482C77.0749 33.1918 75.7184 33.8701 74.3151 33.8935C72.6545 33.9168 71.2045 32.9579 70.9004 30.7829H79.9282C79.975 30.4788 79.9984 30.1748 79.9984 29.8473ZM74.3151 25.8012C75.9522 25.8246 77.3789 26.7134 77.7297 28.8417H70.9004C71.2513 26.7134 72.6779 25.7778 74.3151 25.8012ZM87.5123 23.8132C85.5945 23.8132 84.3082 24.5149 83.5597 26.152V24.0003H81.2209V35.6943H83.5597V31.3208C83.5597 27.0408 84.8695 25.8714 87.5591 25.8714V23.8132H87.5123Z" fill="white"/>
<path d="M143.59 369.792C143.038 369.792 142.59 370.24 142.59 370.792C142.59 371.345 143.038 371.792 143.59 371.792V369.792ZM272.808 370.792V371.792H273.808V370.792H272.808ZM273.516 289.981C273.125 289.591 272.492 289.591 272.101 289.981L265.737 296.345C265.347 296.736 265.347 297.369 265.737 297.76C266.128 298.15 266.761 298.15 267.152 297.76L272.808 292.103L278.465 297.76C278.856 298.15 279.489 298.15 279.879 297.76C280.27 297.369 280.27 296.736 279.879 296.345L273.516 289.981ZM143.59 371.792H272.808V369.792H143.59V371.792ZM273.808 370.792V290.688H271.808V370.792H273.808Z" fill="white"/>
<path d="M141.129 337.342C140.738 337.732 140.738 338.365 141.129 338.756L147.493 345.12C147.883 345.51 148.516 345.51 148.907 345.12C149.298 344.729 149.298 344.096 148.907 343.706L143.25 338.049L148.907 332.392C149.298 332.001 149.298 331.368 148.907 330.978C148.516 330.587 147.883 330.587 147.493 330.978L141.129 337.342ZM240.065 338.049V339.049H241.065V338.049H240.065ZM241.065 291.857C241.065 291.305 240.618 290.857 240.065 290.857C239.513 290.857 239.065 291.305 239.065 291.857H241.065ZM141.836 339.049H240.065V337.049H141.836V339.049ZM241.065 338.049V291.857H239.065V338.049H241.065Z" fill="white"/>
<rect x="175.152" y="359.099" width="53.7924" height="21.0492" rx="4.6776" fill="white"/>
<rect x="175.152" y="327" width="53.7924" height="21.0492" rx="4.6776" fill="white"/>
<line x1="179.737" y1="338.321" x2="185.262" y2="338.321" stroke="#151E31" stroke-width="1.1694" stroke-linecap="round"/>
<line x1="182.526" y1="335.585" x2="182.526" y2="341.11" stroke="#151E31" stroke-width="1.1694" stroke-linecap="round"/>
<path d="M196.54 340.544L194.576 333.177H193.158L191.194 340.544L188.991 333.177H187.461L190.534 343H191.923L193.874 335.801L195.811 343H197.2L200.273 333.177H198.743L196.54 340.544ZM207.458 333.177H201.003V343H207.458V341.751H202.392V338.706H206.686V337.457H202.392V334.426H207.458V333.177ZM215.762 333.177H208.044V334.426H211.215V343H212.604V334.426H215.762V333.177ZM222.593 337.457H217.85V333.177H216.461V343H217.85V338.706H222.593V343H223.983V333.177H222.593V337.457Z" fill="#151E31"/>
<path d="M192.54 372.544L190.576 365.177H189.158L187.194 372.544L184.991 365.177H183.461L186.534 375H187.923L189.874 367.801L191.811 375H193.2L196.273 365.177H194.743L192.54 372.544ZM203.458 365.177H197.003V375H203.458V373.751H198.392V370.706H202.686V369.457H198.392V366.426H203.458V365.177ZM211.762 365.177H204.044V366.426H207.215V375H208.604V366.426H211.762V365.177ZM218.593 369.457H213.85V365.177H212.461V375H213.85V370.706H218.593V375H219.983V365.177H218.593V369.457Z" fill="#151E31"/>
<path d="M141.836 12.202C141.284 12.202 140.836 11.7542 140.836 11.202C140.836 10.6497 141.284 10.202 141.836 10.202L141.836 12.202ZM275.147 11.202L275.147 10.202L276.147 10.202L276.147 11.202L275.147 11.202ZM275.855 90.2589C275.464 90.6494 274.831 90.6494 274.44 90.2589L268.076 83.8949C267.686 83.5044 267.686 82.8712 268.076 82.4807C268.467 82.0902 269.1 82.0902 269.491 82.4807L275.147 88.1375L280.804 82.4807C281.195 82.0902 281.828 82.0902 282.218 82.4807C282.609 82.8712 282.609 83.5044 282.218 83.8949L275.855 90.2589ZM141.836 10.202L275.147 10.202L275.147 12.202L141.836 12.202L141.836 10.202ZM276.147 11.202L276.147 89.5518L274.147 89.5518L274.147 11.202L276.147 11.202Z" fill="white"/>
<path d="M141.945 44.6525C141.555 44.262 141.555 43.6289 141.945 43.2383L148.309 36.8744C148.7 36.4838 149.333 36.4838 149.723 36.8744C150.114 37.2649 150.114 37.8981 149.723 38.2886L144.067 43.9454L149.723 49.6023C150.114 49.9928 150.114 50.626 149.723 51.0165C149.333 51.407 148.7 51.407 148.309 51.0165L141.945 44.6525ZM242.404 43.9454L242.404 42.9454L243.404 42.9454L243.404 43.9454L242.404 43.9454ZM243.404 88C243.404 88.5523 242.956 89 242.404 89C241.851 89 241.404 88.5523 241.404 88L243.404 88ZM142.652 42.9454L242.404 42.9454L242.404 44.9454L142.652 44.9454L142.652 42.9454ZM243.404 43.9454L243.404 88L241.404 88L241.404 43.9454L243.404 43.9454Z" fill="white"/>
<rect x="182.766" y="0.677734" width="33.9126" height="21.0492" rx="4.6776" fill="white"/>
<path d="M192.899 6.17705H189.573V16H192.899C195.635 16 197.895 14.4283 197.895 11.0885C197.895 7.74872 195.635 6.17705 192.899 6.17705ZM190.963 14.8353V7.34177H192.899C194.836 7.34177 196.449 8.42229 196.449 11.0885C196.449 13.7407 194.85 14.8353 192.899 14.8353H190.963ZM207.304 16L203.6 6.17705H202.21L198.506 16H200.035L200.989 13.3197H204.82L205.775 16H207.304ZM202.912 7.98728L204.399 12.141H201.424L202.912 7.98728ZM208.032 6.17705H209.422V16H208.032V6.17705Z" fill="#151E31"/>
<rect x="166.395" y="32.251" width="51.4535" height="21.0492" rx="4.6776" fill="white"/>
<line x1="173.741" y1="43.4729" x2="179.528" y2="43.4729" stroke="#151F31" stroke-width="1.1694" stroke-linecap="round"/>
<line x1="182.436" y1="43.4729" x2="186.484" y2="43.4729" stroke="#151F31" stroke-width="1.1694" stroke-linecap="round"/>
<line x1="176.639" y1="40.5847" x2="176.639" y2="46.3717" stroke="#151F31" stroke-width="1.1694" stroke-linecap="round"/>
<path d="M193.903 38.177H190.577V48H193.903C196.639 48 198.899 46.4283 198.899 43.0885C198.899 39.7487 196.639 38.177 193.903 38.177ZM191.966 46.8353V39.3418H193.903C195.84 39.3418 197.453 40.4223 197.453 43.0885C197.453 45.7407 195.854 46.8353 193.903 46.8353H191.966ZM208.308 48L204.603 38.177H203.214L199.51 48H201.039L201.993 45.3197H205.824L206.779 48H208.308ZM203.916 39.9873L205.403 44.141H202.428L203.916 39.9873ZM209.036 38.177H210.426V48H209.036V38.177Z" fill="#151E31"/>
</g>
<defs>
<filter id="filter0_f_318_569" x="-141.517" y="-201.669" width="784.338" height="782.338" filterUnits="userSpaceOnUse" color-interpolation-filters="sRGB">
<feFlood flood-opacity="0" result="BackgroundImageFix"/>
<feBlend mode="normal" in="SourceGraphic" in2="BackgroundImageFix" result="shape"/>
<feGaussianBlur stdDeviation="164.334" result="effect1_foregroundBlur_318_569"/>
</filter>
<clipPath id="clip0_318_569">
<rect width="617" height="380" fill="white"/>
</clipPath>
</defs>
</svg>
