<svg width="87" height="23" viewBox="0 0 87 23" fill="none" xmlns="http://www.w3.org/2000/svg">
<path d="M5.75587 20.2169C5.75587 20.8964 5.82407 21.406 5.96048 21.7457C6.0969 22.0628 6.34698 22.278 6.71075 22.3912C7.09724 22.5044 7.69973 22.5611 8.51819 22.5611C8.56366 22.5611 8.5864 22.629 8.5864 22.7649C8.5864 22.9008 8.56366 22.9688 8.51819 22.9688C7.79067 22.9688 7.22229 22.9574 6.81305 22.9348L4.35765 22.9008L1.97046 22.9348C1.53849 22.9574 0.947373 22.9688 0.197112 22.9688C0.151641 22.9688 0.128906 22.9008 0.128906 22.7649C0.128906 22.629 0.151641 22.5611 0.197112 22.5611C1.01558 22.5611 1.61806 22.5044 2.00456 22.3912C2.39106 22.278 2.65251 22.0628 2.78892 21.7457C2.92534 21.406 2.99354 20.8964 2.99354 20.2169V4.4871C2.99354 3.80763 2.92534 3.30935 2.78892 2.99226C2.65251 2.67517 2.39106 2.46 2.00456 2.34676C1.61806 2.21086 1.01558 2.14292 0.197112 2.14292C0.151641 2.14292 0.128906 2.07497 0.128906 1.93908C0.128906 1.80318 0.151641 1.73524 0.197112 1.73524L1.97046 1.76921C2.97081 1.81451 3.76654 1.83716 4.35765 1.83716C5.01697 1.83716 5.84681 1.81451 6.84716 1.76921L8.51819 1.73524C8.56366 1.73524 8.5864 1.80318 8.5864 1.93908C8.5864 2.07497 8.56366 2.14292 8.51819 2.14292C7.72246 2.14292 7.13135 2.21086 6.74485 2.34676C6.35835 2.48265 6.0969 2.72047 5.96048 3.06021C5.82407 3.37729 5.75587 3.87557 5.75587 4.55504V20.2169Z" fill="#F2F5F6"/>
<path d="M16.872 2.41471C15.4625 2.41471 14.3598 2.81107 13.5641 3.60378C12.7683 4.37385 12.1772 5.61955 11.7907 7.34088C11.768 7.38618 11.6884 7.40883 11.552 7.40883C11.4383 7.40883 11.3815 7.38618 11.3815 7.34088C11.4724 6.68406 11.5747 5.6422 11.6884 4.21531C11.8021 2.78842 11.8589 1.71259 11.8589 0.987815C11.8589 0.87457 11.9271 0.817948 12.0636 0.817948C12.2 0.817948 12.2682 0.87457 12.2682 0.987815C12.2682 1.4861 12.8934 1.73524 14.1438 1.73524C16.0763 1.80318 18.3612 1.83716 20.9985 1.83716C22.3399 1.83716 23.7608 1.81451 25.2613 1.76921L27.5803 1.73524C28.4215 1.73524 29.0354 1.67861 29.4219 1.56537C29.8084 1.45212 30.0585 1.22563 30.1721 0.885894C30.1949 0.795298 30.2631 0.75 30.3768 0.75C30.5132 0.75 30.5814 0.795298 30.5814 0.885894C30.5132 1.52007 30.4336 2.53928 30.3427 3.94352C30.2744 5.34776 30.2403 6.48022 30.2403 7.34088C30.2403 7.38618 30.1721 7.40883 30.0357 7.40883C29.9221 7.40883 29.8652 7.38618 29.8652 7.34088C29.7061 5.5969 29.2514 4.33988 28.5011 3.56981C27.7508 2.79974 26.6368 2.41471 25.159 2.41471C24.3178 2.41471 23.7153 2.47133 23.3516 2.58458C22.9878 2.67517 22.7377 2.86769 22.6013 3.16213C22.4649 3.43392 22.3967 3.89822 22.3967 4.55504V20.2169C22.3967 20.919 22.4649 21.4286 22.6013 21.7457C22.7605 22.0628 23.056 22.278 23.488 22.3912C23.92 22.5044 24.6134 22.5611 25.5683 22.5611C25.6137 22.5611 25.6365 22.629 25.6365 22.7649C25.6365 22.9008 25.6137 22.9688 25.5683 22.9688C24.7725 22.9688 24.1473 22.9574 23.6926 22.9348L20.9985 22.9008L18.3726 22.9348C17.9179 22.9574 17.2813 22.9688 16.4628 22.9688C16.3946 22.9688 16.3605 22.9008 16.3605 22.7649C16.3605 22.629 16.3946 22.5611 16.4628 22.5611C17.395 22.5611 18.077 22.5044 18.509 22.3912C18.9409 22.278 19.2365 22.0628 19.3957 21.7457C19.5548 21.406 19.6344 20.8964 19.6344 20.2169V4.4871C19.6344 3.85292 19.5662 3.39994 19.4298 3.12815C19.2933 2.83372 19.0433 2.6412 18.6795 2.5506C18.3157 2.46001 17.7133 2.41471 16.872 2.41471Z" fill="#F2F5F6"/>
<path d="M56.524 22.5611C56.5922 22.5611 56.6263 22.629 56.6263 22.7649C56.6263 22.9008 56.5922 22.9688 56.524 22.9688C55.7965 22.9688 55.2167 22.9574 54.7848 22.9348L52.3294 22.9008L49.6352 22.9348C49.2487 22.9574 48.7145 22.9688 48.0324 22.9688C47.9642 22.9688 47.9301 22.9008 47.9301 22.7649C47.9301 22.629 47.9642 22.5611 48.0324 22.5611C48.8963 22.5611 49.5329 22.5044 49.9422 22.3912C50.3514 22.278 50.6242 22.0628 50.7606 21.7457C50.897 21.406 50.9653 20.8964 50.9653 20.2169V12.301H38.5518V20.2169C38.5518 20.8964 38.62 21.406 38.7564 21.7457C38.8929 22.0628 39.1657 22.278 39.5749 22.3912C39.9841 22.5044 40.6207 22.5611 41.4847 22.5611C41.5301 22.5611 41.5529 22.629 41.5529 22.7649C41.5529 22.9008 41.5301 22.9688 41.4847 22.9688C40.7571 22.9688 40.1774 22.9574 39.7454 22.9348L37.1195 22.9008L34.6982 22.9348C34.2662 22.9574 33.6751 22.9688 32.9249 22.9688C32.8794 22.9688 32.8567 22.9008 32.8567 22.7649C32.8567 22.629 32.8794 22.5611 32.9249 22.5611C33.7661 22.5611 34.3799 22.5044 34.7664 22.3912C35.1757 22.278 35.4485 22.0628 35.5849 21.7457C35.744 21.406 35.8236 20.8964 35.8236 20.2169V4.4871C35.8236 3.80763 35.7554 3.30935 35.619 2.99226C35.4826 2.67517 35.2211 2.46 34.8346 2.34676C34.4481 2.21086 33.8343 2.14292 32.9931 2.14292C32.9249 2.14292 32.8908 2.07497 32.8908 1.93908C32.8908 1.80318 32.9249 1.73524 32.9931 1.73524L34.7323 1.76921C35.6872 1.81451 36.4829 1.83716 37.1195 1.83716C37.847 1.83716 38.7337 1.81451 39.7795 1.76921L41.4847 1.73524C41.5301 1.73524 41.5529 1.80318 41.5529 1.93908C41.5529 2.07497 41.5301 2.14292 41.4847 2.14292C40.6435 2.14292 40.0183 2.21086 39.609 2.34676C39.1998 2.48265 38.9156 2.72047 38.7564 3.06021C38.62 3.37729 38.5518 3.87557 38.5518 4.55504V11.5196H50.9653V4.55504C50.9653 3.87557 50.8857 3.37729 50.7265 3.06021C50.5901 2.72047 50.3173 2.48265 49.9081 2.34676C49.5216 2.21086 48.8963 2.14292 48.0324 2.14292C47.9642 2.14292 47.9301 2.07497 47.9301 1.93908C47.9301 1.80318 47.9642 1.73524 48.0324 1.73524L49.6352 1.76921C50.6811 1.81451 51.5791 1.83716 52.3294 1.83716C52.966 1.83716 53.7844 1.81451 54.7848 1.76921L56.524 1.73524C56.5922 1.73524 56.6263 1.80318 56.6263 1.93908C56.6263 2.07497 56.5922 2.14292 56.524 2.14292C55.6828 2.14292 55.069 2.21086 54.6825 2.34676C54.296 2.46 54.0231 2.67517 53.864 2.99226C53.7276 3.30935 53.6594 3.80763 53.6594 4.4871V20.2169C53.6594 20.8964 53.7276 21.406 53.864 21.7457C54.0231 22.0628 54.296 22.278 54.6825 22.3912C55.069 22.5044 55.6828 22.5611 56.524 22.5611Z" fill="#F2F5F6"/>
<path d="M64.8363 20.2169C64.8363 20.8964 64.9045 21.406 65.0409 21.7457C65.1773 22.0628 65.4274 22.278 65.7912 22.3912C66.1777 22.5044 66.7802 22.5611 67.5986 22.5611C67.6441 22.5611 67.6668 22.629 67.6668 22.7649C67.6668 22.9008 67.6441 22.9688 67.5986 22.9688C66.8711 22.9688 66.3027 22.9574 65.8935 22.9348L63.4381 22.9008L61.0509 22.9348C60.6189 22.9574 60.0278 22.9688 59.2775 22.9688C59.2321 22.9688 59.2093 22.9008 59.2093 22.7649C59.2093 22.629 59.2321 22.5611 59.2775 22.5611C60.096 22.5611 60.6985 22.5044 61.085 22.3912C61.4715 22.278 61.7329 22.0628 61.8694 21.7457C62.0058 21.406 62.074 20.8964 62.074 20.2169V4.4871C62.074 3.80763 62.0058 3.30935 61.8694 2.99226C61.7329 2.67517 61.4715 2.46 61.085 2.34676C60.6985 2.21086 60.096 2.14292 59.2775 2.14292C59.2321 2.14292 59.2093 2.07497 59.2093 1.93908C59.2093 1.80318 59.2321 1.73524 59.2775 1.73524L61.0509 1.76921C62.0512 1.81451 62.847 1.83716 63.4381 1.83716C64.0974 1.83716 64.9272 1.81451 65.9276 1.76921L67.5986 1.73524C67.6441 1.73524 67.6668 1.80318 67.6668 1.93908C67.6668 2.07497 67.6441 2.14292 67.5986 2.14292C66.8029 2.14292 66.2118 2.21086 65.8253 2.34676C65.4388 2.48265 65.1773 2.72047 65.0409 3.06021C64.9045 3.37729 64.8363 3.87557 64.8363 4.55504V20.2169Z" fill="#F2F5F6"/>
<path d="M75.782 20.081C75.782 20.7152 75.8388 21.1795 75.9525 21.4739C76.0889 21.7457 76.3276 21.9382 76.6686 22.0515C77.0097 22.1421 77.5439 22.1874 78.2715 22.1874H81.1702C82.6025 22.1874 83.7848 21.7683 84.7169 20.9303C85.6718 20.0697 86.3084 18.9146 86.6267 17.465C86.6267 17.3971 86.6835 17.3744 86.7972 17.3971C86.9336 17.3971 87.0018 17.431 87.0018 17.499C86.7972 19.4921 86.6949 21.1455 86.6949 22.4591C86.6949 22.6403 86.6494 22.7762 86.5584 22.8668C86.4902 22.9348 86.3652 22.9688 86.1833 22.9688H70.2914C70.2459 22.9688 70.2232 22.9008 70.2232 22.7649C70.2232 22.629 70.2459 22.5611 70.2914 22.5611C71.1099 22.5611 71.701 22.5044 72.0648 22.3912C72.4513 22.278 72.7127 22.0628 72.8491 21.7457C72.9855 21.406 73.0537 20.8964 73.0537 20.2169V4.4871C73.0537 3.80763 72.9855 3.30935 72.8491 2.99226C72.7127 2.67517 72.4513 2.46 72.0648 2.34676C71.701 2.21086 71.1099 2.14292 70.2914 2.14292C70.2459 2.14292 70.2232 2.07497 70.2232 1.93908C70.2232 1.80318 70.2459 1.73524 70.2914 1.73524L71.9966 1.76921C72.9969 1.81451 73.804 1.83716 74.4179 1.83716C75.0317 1.83716 75.8388 1.81451 76.8391 1.76921L78.5443 1.73524C78.5898 1.73524 78.6125 1.80318 78.6125 1.93908C78.6125 2.07497 78.5898 2.14292 78.5443 2.14292C77.7486 2.14292 77.1574 2.21086 76.7709 2.34676C76.3844 2.46 76.123 2.6865 75.9866 3.02623C75.8502 3.34332 75.782 3.8416 75.782 4.52107V20.081Z" fill="#F2F5F6"/>
</svg>
