<svg width="31" height="28" viewBox="0 0 31 28" fill="none" xmlns="http://www.w3.org/2000/svg">
<path d="M30.5524 5.92669L26.3056 10.1595C25.4618 19.9892 17.1649 27.6251 7.25086 27.6251C5.2118 27.6251 3.5243 27.3017 2.24461 26.6689C1.21805 26.1486 0.796175 25.6001 0.683675 25.4314C0.590595 25.29 0.530617 25.1294 0.508208 24.9617C0.4858 24.7939 0.501539 24.6232 0.554254 24.4624C0.606969 24.3015 0.695301 24.1546 0.812668 24.0327C0.930034 23.9107 1.07341 23.8168 1.23211 23.7579C1.26024 23.7439 4.57899 22.4783 6.73055 20.0454C5.39622 19.0954 4.22342 17.9368 3.25711 16.6142C1.33055 13.9986 -0.708512 9.45638 0.514925 2.67826C0.553385 2.47675 0.645551 2.28937 0.781688 2.13591C0.917824 1.98244 1.09288 1.86859 1.28836 1.80638C1.48447 1.74217 1.69446 1.73313 1.89536 1.78025C2.09626 1.82738 2.28033 1.92885 2.42743 2.07357C2.46961 2.12982 7.15243 6.74232 12.8759 8.23294V7.37513C12.8814 6.48316 13.0625 5.60102 13.409 4.77906C13.7554 3.95711 14.2604 3.21145 14.895 2.58465C15.5297 1.95785 16.2816 1.46219 17.1077 1.12598C17.9339 0.789762 18.8183 0.619574 19.7102 0.625132C20.8809 0.641829 22.0273 0.961482 23.0377 1.55295C24.0482 2.14441 24.8882 2.98752 25.4759 4.00013H29.7509C29.973 3.99944 30.1903 4.0645 30.3755 4.18712C30.5607 4.30975 30.7054 4.48444 30.7915 4.68919C30.8725 4.89699 30.8931 5.12349 30.8508 5.34249C30.8085 5.56149 30.705 5.76404 30.5524 5.92669V5.92669Z" fill="#F2F5F6"/>
</svg>
