<svg width="31" height="28" viewBox="0 0 31 28" fill="none" xmlns="http://www.w3.org/2000/svg">
<path d="M30.5514 5.92645L26.3046 10.1593C25.4608 19.989 17.1639 27.6249 7.24989 27.6249C5.21082 27.6249 3.52332 27.3014 2.24364 26.6686C1.21707 26.1483 0.795199 25.5999 0.682699 25.4311C0.589619 25.2898 0.52964 25.1292 0.507232 24.9614C0.484824 24.7937 0.500563 24.623 0.553278 24.4621C0.605993 24.3013 0.694325 24.1544 0.811691 24.0324C0.929057 23.9105 1.07243 23.8166 1.23114 23.7577C1.25926 23.7436 4.57801 22.478 6.72957 20.0452C5.39524 19.0951 4.22244 17.9366 3.25614 16.6139C1.32957 13.9983 -0.709489 9.45614 0.513949 2.67801C0.552408 2.47651 0.644574 2.28913 0.780711 2.13566C0.916848 1.9822 1.0919 1.86835 1.28739 1.80614C1.48349 1.74192 1.69348 1.73289 1.89438 1.78001C2.09528 1.82713 2.27935 1.92861 2.42645 2.07333C2.46864 2.12958 7.15145 6.74207 12.8749 8.2327V7.37489C12.8804 6.48292 13.0616 5.60077 13.408 4.77882C13.7545 3.95687 14.2594 3.2112 14.8941 2.5844C15.5287 1.95761 16.2806 1.46195 17.1068 1.12573C17.933 0.789517 18.8173 0.61933 19.7093 0.624888C20.8799 0.641584 22.0263 0.961237 23.0368 1.5527C24.0472 2.14417 24.8872 2.98728 25.4749 3.99989H29.7499C29.972 3.99919 30.1893 4.06426 30.3745 4.18688C30.5597 4.3095 30.7044 4.4842 30.7905 4.68895C30.8716 4.89675 30.8921 5.12325 30.8498 5.34225C30.8075 5.56125 30.7041 5.76379 30.5514 5.92645Z" fill="#1D2130"/>
</svg>
